<?xml version="1.0" encoding="UTF-8" standalone="no"?>
<!DOCTYPE svg PUBLIC "-//W3C//DTD SVG 1.1//EN" "http://www.w3.org/Graphics/SVG/1.1/DTD/svg11.dtd">
<svg width="100%" height="100%" viewBox="0 0 200 27" version="1.1" xmlns="http://www.w3.org/2000/svg" xmlns:xlink="http://www.w3.org/1999/xlink" xml:space="preserve" xmlns:serif="http://www.serif.com/" style="fill-rule:evenodd;clip-rule:evenodd;stroke-linejoin:round;stroke-miterlimit:2;">
    <g>
        <clipPath id="_clip1">
            <rect x="0" y="0" width="200" height="27"/>
        </clipPath>
        <g clip-path="url(#_clip1)">
            <path d="M2.756,3.445C1.805,3.445 1.034,2.674 1.034,1.723C1.034,0.771 1.805,-0 2.756,-0C3.708,-0 4.479,0.771 4.479,1.723C4.479,2.674 3.708,3.445 2.756,3.445Z" style="fill:rgb(252,177,25);fill-rule:nonzero;"/>
            <path d="M2.756,11.37C1.234,11.37 0,10.136 0,8.613C0,7.091 1.234,5.857 2.756,5.857C4.278,5.857 5.512,7.091 5.512,8.613C5.512,10.136 4.278,11.37 2.756,11.37Z" style="fill:rgb(252,177,25);fill-rule:nonzero;"/>
            <path d="M2.756,25.151C1.234,25.151 0,23.917 0,22.394C0,20.872 1.234,19.638 2.756,19.638C4.278,19.638 5.512,20.872 5.512,22.394C5.512,23.917 4.278,25.151 2.756,25.151Z" style="fill:rgb(252,177,25);fill-rule:nonzero;"/>
            <path d="M1.034,15.504C1.034,16.455 1.805,17.227 2.756,17.227C3.708,17.227 4.479,16.455 4.479,15.504C4.479,14.553 3.708,13.781 2.756,13.781C1.805,13.781 1.034,14.553 1.034,15.504Z" style="fill:rgb(252,177,25);fill-rule:nonzero;"/>
            <path d="M10.577,18.053C10.577,19.576 11.811,20.81 13.333,20.81C14.855,20.81 16.09,19.576 16.09,18.053C16.09,16.531 14.856,15.297 13.333,15.297C11.811,15.297 10.577,16.531 10.577,18.053Z" style="fill:rgb(252,177,25);fill-rule:nonzero;"/>
            <path d="M13.333,26.667C12.382,26.667 11.611,25.895 11.611,24.944C11.611,23.993 12.382,23.221 13.333,23.221C14.285,23.221 15.056,23.993 15.056,24.944C15.056,25.895 14.285,26.667 13.333,26.667Z" style="fill:rgb(252,177,25);fill-rule:nonzero;"/>
            <path d="M11.611,11.163C11.611,12.114 12.382,12.886 13.333,12.886C14.285,12.886 15.056,12.114 15.056,11.163C15.056,10.212 14.285,9.44 13.333,9.44C12.382,9.44 11.611,10.212 11.611,11.163Z" style="fill:rgb(252,177,25);fill-rule:nonzero;"/>
            <path d="M13.333,5.995C12.382,5.995 11.611,5.224 11.611,4.272C11.611,3.321 12.382,2.55 13.333,2.55C14.285,2.55 15.056,3.321 15.056,4.272C15.056,5.224 14.285,5.995 13.333,5.995Z" style="fill:rgb(252,177,25);fill-rule:nonzero;"/>
            <path d="M21.154,8.613C21.154,10.136 22.388,11.37 23.91,11.37C25.433,11.37 26.667,10.136 26.667,8.613C26.667,7.091 25.433,5.857 23.91,5.857C22.388,5.857 21.154,7.091 21.154,8.613Z" style="fill:rgb(252,177,25);fill-rule:nonzero;"/>
            <path d="M23.911,3.445C22.959,3.445 22.188,2.674 22.188,1.723C22.188,0.771 22.959,-0 23.911,-0C24.862,-0 25.633,0.771 25.633,1.723C25.633,2.674 24.862,3.445 23.911,3.445Z" style="fill:rgb(252,177,25);fill-rule:nonzero;"/>
            <path d="M22.188,15.504C22.188,16.455 22.959,17.227 23.911,17.227C24.862,17.227 25.633,16.455 25.633,15.504C25.633,14.553 24.862,13.781 23.911,13.781C22.959,13.781 22.188,14.553 22.188,15.504Z" style="fill:rgb(252,177,25);fill-rule:nonzero;"/>
            <path d="M23.911,24.117C22.959,24.117 22.188,23.346 22.188,22.395C22.188,21.443 22.959,20.672 23.911,20.672C24.862,20.672 25.633,21.443 25.633,22.395C25.633,23.346 24.862,24.117 23.911,24.117Z" style="fill:rgb(252,177,25);fill-rule:nonzero;"/>
            <g>
                <path d="M73.086,19.792L73.086,19.088L74.334,18.942C74.334,18.88 74.334,18.817 74.334,18.752C74.345,18.357 74.35,17.952 74.35,17.536L74.35,9.472L72.99,9.248L72.99,8.608L75.406,8L75.774,8.096L75.726,10.208L75.726,13.472L75.806,13.472C76.03,13.163 76.292,12.885 76.59,12.64C76.9,12.384 77.23,12.181 77.582,12.032C77.934,11.883 78.302,11.808 78.686,11.808C79.422,11.808 79.972,12.043 80.334,12.512C80.697,12.971 80.878,13.696 80.878,14.688L80.878,17.552C80.889,17.968 80.894,18.373 80.894,18.768L80.899,18.94L82.094,19.088L82.094,19.792L78.238,19.792L78.238,19.088L79.438,18.946L79.438,18.768C79.449,18.373 79.454,17.968 79.454,17.552C79.465,17.125 79.47,16.736 79.47,16.384L79.47,14.896C79.47,14.203 79.364,13.717 79.15,13.44C78.937,13.163 78.585,13.024 78.094,13.024C77.828,13.024 77.561,13.067 77.294,13.152C77.028,13.227 76.756,13.349 76.478,13.52C76.25,13.657 76.01,13.829 75.758,14.036L75.758,17.536C75.769,17.952 75.774,18.357 75.774,18.752L75.777,18.859L75.779,18.941L76.974,19.088L76.974,19.792L73.086,19.792Z" style="fill:white;fill-rule:nonzero;"/>
                <path d="M59.525,19.792L59.525,19.088L60.773,18.943C60.773,18.881 60.773,18.817 60.773,18.752L60.773,17.536C60.784,17.109 60.789,16.725 60.789,16.384L60.789,15.584C60.789,15.168 60.784,14.8 60.773,14.48C60.773,14.16 60.768,13.829 60.757,13.488L59.445,13.392L59.445,12.736L61.861,11.872L62.245,11.984L62.213,14.016L62.213,18.752L62.218,18.94L63.413,19.088L63.413,19.792L59.525,19.792Z" style="fill:white;fill-rule:nonzero;"/>
                <path d="M61.445,10.272C61.146,10.272 60.89,10.171 60.677,9.968C60.464,9.765 60.357,9.515 60.357,9.216C60.357,8.917 60.464,8.672 60.677,8.48C60.89,8.277 61.146,8.176 61.445,8.176C61.744,8.176 61.994,8.277 62.197,8.48C62.41,8.672 62.517,8.917 62.517,9.216C62.517,9.515 62.41,9.765 62.197,9.968C61.994,10.171 61.744,10.272 61.445,10.272Z" style="fill:white;fill-rule:nonzero;"/>
                <path d="M37.329,9.967L40.176,19.872L41.216,19.872L43.504,12.368L43.77,11.23L46.336,19.872L47.344,19.872L50.127,9.985L51.472,9.856L51.472,9.072L47.744,9.072L47.744,9.856L49.185,9.995L47.424,16.368L47.138,17.867L44.785,9.988L46.352,9.856L46.352,9.072L41.872,9.072L41.872,9.856L43.328,9.975L41.312,16.304L41.036,17.765L38.948,9.982L40.432,9.856L40.432,9.072L36,9.072L36,9.856L37.329,9.967Z" style="fill:white;fill-rule:nonzero;"/>
                <path d="M52.991,19.52C53.567,19.84 54.244,20 55.023,20C55.588,20 56.063,19.925 56.447,19.776C56.841,19.616 57.177,19.403 57.455,19.136C57.743,18.859 57.999,18.544 58.223,18.192L57.775,17.824C57.476,18.176 57.135,18.448 56.751,18.64C56.377,18.832 55.919,18.928 55.375,18.928C54.831,18.928 54.356,18.811 53.951,18.576C53.556,18.331 53.247,17.979 53.023,17.52C52.822,17.078 52.715,16.555 52.704,15.952L57.983,15.952C58.015,15.835 58.041,15.685 58.063,15.504C58.084,15.312 58.095,15.12 58.095,14.928C58.095,14.277 57.961,13.723 57.695,13.264C57.428,12.795 57.06,12.437 56.591,12.192C56.121,11.936 55.577,11.808 54.959,11.808C54.255,11.808 53.62,11.989 53.055,12.352C52.489,12.704 52.041,13.195 51.711,13.824C51.391,14.453 51.231,15.179 51.231,16C51.231,16.821 51.38,17.531 51.679,18.128C51.988,18.725 52.425,19.189 52.991,19.52ZM52.726,15.232C52.767,14.738 52.861,14.322 53.007,13.984C53.22,13.515 53.497,13.168 53.839,12.944C54.191,12.72 54.564,12.608 54.959,12.608C55.321,12.608 55.636,12.677 55.903,12.816C56.169,12.955 56.372,13.157 56.511,13.424C56.649,13.691 56.719,14.021 56.719,14.416C56.719,14.619 56.676,14.795 56.591,14.944C56.505,15.083 56.313,15.179 56.015,15.232L52.726,15.232Z" style="fill:white;"/>
                <path d="M66.058,23.328C66.56,23.499 67.178,23.584 67.914,23.584C68.565,23.584 69.146,23.509 69.658,23.36C70.181,23.211 70.624,23.003 70.986,22.736C71.349,22.48 71.626,22.181 71.818,21.84C72.021,21.509 72.122,21.157 72.122,20.784C72.122,20.368 72.021,20.005 71.818,19.696C71.626,19.387 71.333,19.147 70.938,18.976C70.554,18.805 70.069,18.72 69.482,18.72L67.466,18.72C67.05,18.72 66.752,18.651 66.57,18.512C66.389,18.363 66.298,18.155 66.298,17.888C66.298,17.675 66.357,17.477 66.474,17.296C66.542,17.2 66.63,17.096 66.739,16.983C67.106,17.096 67.508,17.152 67.946,17.152C68.533,17.152 69.05,17.045 69.498,16.832C69.957,16.608 70.314,16.299 70.57,15.904C70.837,15.499 70.97,15.019 70.97,14.464C70.97,14.123 70.922,13.824 70.826,13.568C70.773,13.419 70.708,13.281 70.631,13.152L72.282,13.152L72.282,11.872L71.866,11.776L70.2,12.656C70.077,12.525 69.934,12.408 69.77,12.304C69.536,12.144 69.264,12.021 68.954,11.936C68.656,11.851 68.325,11.808 67.962,11.808C67.376,11.808 66.853,11.915 66.394,12.128C65.946,12.341 65.589,12.651 65.322,13.056C65.066,13.451 64.938,13.931 64.938,14.496C64.938,15.061 65.066,15.541 65.322,15.936C65.566,16.311 65.896,16.605 66.313,16.816C65.88,17.103 65.56,17.375 65.354,17.632C65.141,17.888 65.034,18.171 65.034,18.48C65.034,18.832 65.146,19.109 65.37,19.312C65.605,19.504 65.925,19.637 66.33,19.712L66.33,19.774C65.991,19.908 65.703,20.047 65.466,20.192C65.146,20.395 64.917,20.608 64.778,20.832C64.64,21.067 64.57,21.328 64.57,21.616C64.57,22 64.693,22.341 64.938,22.64C65.184,22.939 65.557,23.168 66.058,23.328ZM66.651,19.919C66.693,19.92 66.735,19.92 66.778,19.92C66.938,19.931 67.098,19.936 67.258,19.936L69.242,19.936C69.797,19.936 70.197,20.048 70.442,20.272C70.698,20.496 70.826,20.789 70.826,21.152C70.826,21.44 70.725,21.707 70.522,21.952C70.32,22.208 70.016,22.411 69.61,22.56C69.205,22.709 68.704,22.784 68.106,22.784C67.626,22.784 67.226,22.731 66.906,22.624C66.586,22.517 66.346,22.352 66.186,22.128C66.026,21.915 65.946,21.659 65.946,21.36C65.946,21.147 65.978,20.949 66.042,20.768C66.117,20.587 66.218,20.411 66.346,20.24C66.433,20.133 66.535,20.026 66.651,19.919ZM68.81,16.176C68.565,16.336 68.272,16.416 67.93,16.416C67.589,16.416 67.296,16.336 67.05,16.176C66.816,16.016 66.634,15.792 66.506,15.504C66.378,15.216 66.314,14.88 66.314,14.496C66.314,14.101 66.378,13.76 66.506,13.472C66.645,13.184 66.837,12.96 67.082,12.8C67.338,12.629 67.632,12.544 67.962,12.544C68.304,12.544 68.592,12.624 68.826,12.784C69.072,12.944 69.258,13.168 69.386,13.456C69.525,13.733 69.594,14.064 69.594,14.448C69.594,14.843 69.525,15.189 69.386,15.488C69.258,15.776 69.066,16.005 68.81,16.176Z" style="fill:white;"/>
                <path d="M85.504,12.912L85.504,17.856C85.504,18.272 85.589,18.576 85.76,18.768C85.93,18.949 86.165,19.04 86.464,19.04C86.655,19.04 86.837,19.008 87.007,18.944C87.178,18.869 87.349,18.779 87.519,18.672L87.887,19.216C87.77,19.355 87.615,19.483 87.423,19.6C87.242,19.717 87.034,19.808 86.8,19.872C86.565,19.936 86.304,19.968 86.015,19.968C85.429,19.968 84.959,19.808 84.607,19.488C84.255,19.168 84.079,18.677 84.079,18.016L84.079,12.912L82.703,12.912L82.703,12.176L84.213,11.998L84.639,9.824L85.615,9.824L85.483,12.016L87.727,12.016L87.727,12.912L85.504,12.912Z" style="fill:white;fill-rule:nonzero;"/>
                <path d="M91.386,20C90.885,20 90.426,19.947 90.01,19.84C89.594,19.733 89.2,19.595 88.826,19.424L88.762,17.536L89.69,17.536L90.014,18.987C90.106,19.024 90.201,19.057 90.298,19.088C90.64,19.184 91.013,19.232 91.418,19.232C91.834,19.232 92.17,19.179 92.426,19.072C92.693,18.955 92.89,18.8 93.018,18.608C93.146,18.405 93.21,18.187 93.21,17.952C93.21,17.611 93.088,17.339 92.842,17.136C92.597,16.923 92.208,16.731 91.674,16.56L91.082,16.352C90.624,16.192 90.229,16.011 89.898,15.808C89.568,15.605 89.312,15.365 89.13,15.088C88.949,14.8 88.858,14.464 88.858,14.08C88.858,13.664 88.976,13.285 89.21,12.944C89.445,12.603 89.781,12.331 90.218,12.128C90.656,11.915 91.184,11.808 91.802,11.808C92.261,11.808 92.688,11.867 93.082,11.984C93.477,12.091 93.834,12.235 94.154,12.416L94.106,14.176L93.21,14.176L92.946,12.828C92.86,12.793 92.772,12.763 92.682,12.736C92.405,12.64 92.106,12.592 91.786,12.592C91.264,12.592 90.874,12.699 90.618,12.912C90.362,13.115 90.234,13.381 90.234,13.712C90.234,14.053 90.346,14.32 90.57,14.512C90.794,14.693 91.184,14.88 91.738,15.072L92.17,15.216C92.725,15.408 93.184,15.621 93.546,15.856C93.909,16.091 94.17,16.352 94.33,16.64C94.501,16.928 94.586,17.259 94.586,17.632C94.586,18.069 94.464,18.469 94.218,18.832C93.973,19.184 93.61,19.467 93.13,19.68C92.661,19.893 92.08,20 91.386,20Z" style="fill:white;fill-rule:nonzero;"/>
                <path d="M101.105,19.616C101.628,19.872 102.22,20 102.881,20C103.479,20 103.996,19.92 104.433,19.76C104.881,19.6 105.26,19.392 105.569,19.136C105.767,18.966 105.945,18.789 106.103,18.606C106.278,18.799 106.458,18.997 106.641,19.2C106.823,19.392 107.009,19.547 107.201,19.664C107.393,19.771 107.601,19.845 107.825,19.888C108.049,19.941 108.3,19.968 108.577,19.968C108.823,19.968 109.047,19.952 109.249,19.92C109.463,19.899 109.676,19.867 109.889,19.824L109.937,19.056L108.225,18.884C107.967,18.606 107.716,18.338 107.473,18.08C107.327,17.92 107.183,17.764 107.043,17.612C107.295,17.286 107.518,16.951 107.713,16.608C107.98,16.128 108.209,15.605 108.401,15.04C108.527,14.669 108.642,14.266 108.745,13.831L109.969,13.68L109.969,12.912L106.593,12.912L106.593,13.68L107.871,13.821C107.795,14.191 107.71,14.539 107.617,14.864C107.468,15.376 107.297,15.851 107.105,16.288C106.967,16.594 106.816,16.895 106.651,17.19C106.588,17.123 106.526,17.057 106.465,16.992C106.145,16.64 105.836,16.304 105.537,15.984C105.249,15.664 104.961,15.355 104.673,15.056C104.396,14.747 104.151,14.475 103.937,14.24C103.748,14.032 103.567,13.832 103.394,13.64C104.207,13.257 104.804,12.865 105.185,12.464C105.612,12.016 105.825,11.493 105.825,10.896C105.825,10.277 105.607,9.781 105.169,9.408C104.732,9.024 104.129,8.832 103.361,8.832C102.849,8.832 102.391,8.923 101.985,9.104C101.591,9.285 101.276,9.552 101.041,9.904C100.807,10.245 100.689,10.661 100.689,11.152C100.689,11.493 100.737,11.819 100.833,12.128C100.94,12.437 101.089,12.741 101.281,13.04C101.452,13.296 101.655,13.559 101.893,13.832C101.425,14.034 101.018,14.272 100.673,14.544C100.279,14.853 99.975,15.216 99.761,15.632C99.559,16.037 99.457,16.501 99.457,17.024C99.457,17.6 99.601,18.112 99.889,18.56C100.188,19.008 100.593,19.36 101.105,19.616ZM103.062,13.255C102.966,13.142 102.868,13.028 102.769,12.912C102.545,12.645 102.369,12.405 102.241,12.192C102.113,11.979 102.023,11.776 101.969,11.584C101.916,11.381 101.889,11.173 101.889,10.96C101.889,10.512 102.028,10.155 102.305,9.888C102.583,9.611 102.929,9.472 103.345,9.472C103.751,9.472 104.081,9.6 104.337,9.856C104.593,10.101 104.721,10.453 104.721,10.912C104.721,11.424 104.535,11.883 104.161,12.288C103.863,12.621 103.497,12.943 103.062,13.255ZM105.691,18.151C105.454,18.337 105.19,18.494 104.897,18.624C104.428,18.837 103.905,18.944 103.329,18.944C102.807,18.944 102.364,18.843 102.001,18.64C101.639,18.427 101.367,18.144 101.185,17.792C101.004,17.44 100.913,17.061 100.913,16.656C100.913,16.325 100.972,16 101.089,15.68C101.207,15.349 101.393,15.04 101.649,14.752C101.819,14.562 102.016,14.39 102.242,14.234C102.363,14.377 102.48,14.517 102.593,14.656C102.796,14.88 103.004,15.115 103.217,15.36C103.431,15.605 103.671,15.883 103.937,16.192C104.364,16.683 104.796,17.168 105.233,17.648C105.382,17.811 105.535,17.979 105.691,18.151Z" style="fill:white;"/>
                <path d="M115.057,19.792L115.057,19.008L116.602,18.886C116.607,18.644 116.609,18.402 116.609,18.16L116.609,10.72C116.609,10.472 116.606,10.224 116.602,9.978L115.057,9.856L115.057,9.072L119.809,9.072C120.566,9.072 121.217,9.179 121.761,9.392C122.315,9.605 122.742,9.909 123.041,10.304C123.339,10.688 123.489,11.147 123.489,11.68C123.489,12.16 123.361,12.581 123.105,12.944C122.859,13.296 122.497,13.584 122.017,13.808C121.547,14.021 120.971,14.155 120.289,14.208L120.289,14.224C121.11,14.267 121.798,14.4 122.353,14.624C122.907,14.837 123.323,15.131 123.601,15.504C123.889,15.867 124.033,16.304 124.033,16.816C124.033,17.221 123.942,17.605 123.761,17.968C123.59,18.32 123.323,18.635 122.961,18.912C122.609,19.189 122.155,19.408 121.601,19.568C121.046,19.717 120.395,19.792 119.649,19.792L115.057,19.792ZM118.209,10.72L118.225,9.888L119.409,9.888C119.953,9.888 120.411,9.952 120.785,10.08C121.158,10.208 121.435,10.411 121.617,10.688C121.809,10.965 121.905,11.339 121.905,11.808C121.905,12.277 121.809,12.661 121.617,12.96C121.425,13.259 121.126,13.483 120.721,13.632C120.326,13.771 119.819,13.84 119.201,13.84L118.209,13.84L118.209,10.72ZM118.209,14.656L119.281,14.656C120.358,14.656 121.142,14.837 121.633,15.2C122.134,15.563 122.385,16.107 122.385,16.832C122.385,17.515 122.134,18.043 121.633,18.416C121.142,18.779 120.374,18.96 119.329,18.96L118.225,18.96L118.209,18.128L118.209,14.656Z" style="fill:white;"/>
                <path d="M125.353,19.088L125.353,19.792L129.241,19.792L129.241,19.088L128.046,18.94L128.041,18.752L128.041,14.016L128.073,11.984L127.689,11.872L125.273,12.736L125.273,13.392L126.585,13.488C126.596,13.829 126.601,14.16 126.601,14.48C126.612,14.8 126.617,15.168 126.617,15.584L126.617,16.384C126.617,16.725 126.612,17.109 126.601,17.536L126.601,18.943L125.353,19.088Z" style="fill:white;fill-rule:nonzero;"/>
                <path d="M126.505,9.968C126.718,10.171 126.974,10.272 127.273,10.272C127.572,10.272 127.822,10.171 128.025,9.968C128.238,9.765 128.345,9.515 128.345,9.216C128.345,8.917 128.238,8.672 128.025,8.48C127.822,8.277 127.572,8.176 127.273,8.176C126.974,8.176 126.718,8.277 126.505,8.48C126.292,8.672 126.185,8.917 126.185,9.216C126.185,9.515 126.292,9.765 126.505,9.968Z" style="fill:white;fill-rule:nonzero;"/>
                <path d="M132.766,20.016C132.169,20.016 131.652,19.845 131.214,19.504C130.788,19.152 130.574,18.635 130.574,17.952C130.574,17.589 130.649,17.264 130.798,16.976C130.958,16.677 131.23,16.411 131.615,16.176C131.999,15.931 132.526,15.712 133.198,15.52C133.497,15.435 133.79,15.355 134.078,15.28C134.377,15.195 134.67,15.109 134.958,15.024C135.049,14.998 135.14,14.973 135.23,14.948L135.23,14.56C135.23,14.048 135.172,13.653 135.055,13.376C134.948,13.088 134.772,12.891 134.526,12.784C134.292,12.667 133.988,12.608 133.615,12.608C133.38,12.608 133.14,12.629 132.895,12.672C132.822,12.685 132.749,12.7 132.673,12.718L132.447,13.728C132.393,14.016 132.292,14.235 132.142,14.384C132.004,14.523 131.817,14.592 131.582,14.592C131.337,14.592 131.145,14.528 131.007,14.4C130.879,14.272 130.804,14.112 130.783,13.92C130.921,13.28 131.278,12.768 131.854,12.384C132.43,12 133.15,11.808 134.014,11.808C134.569,11.808 135.038,11.904 135.422,12.096C135.817,12.277 136.116,12.571 136.318,12.976C136.532,13.371 136.638,13.909 136.638,14.592L136.638,18.096C136.638,18.427 136.697,18.667 136.814,18.816C136.932,18.955 137.087,19.024 137.279,19.024C137.417,19.024 137.534,18.997 137.63,18.944C137.737,18.891 137.833,18.827 137.918,18.752L138.19,19.232C138.02,19.477 137.817,19.664 137.582,19.792C137.358,19.909 137.097,19.968 136.798,19.968C136.34,19.968 135.972,19.819 135.694,19.52C135.47,19.278 135.333,18.953 135.283,18.544L135.214,18.544C134.969,18.832 134.729,19.088 134.494,19.312C134.26,19.536 134.004,19.707 133.727,19.824C133.46,19.952 133.14,20.016 132.766,20.016ZM134.718,15.76C134.888,15.707 135.059,15.653 135.23,15.6L135.23,17.963C135.022,18.131 134.835,18.276 134.671,18.4C134.425,18.581 134.201,18.715 133.999,18.8C133.807,18.885 133.593,18.928 133.358,18.928C132.964,18.928 132.644,18.827 132.398,18.624C132.153,18.411 132.03,18.101 132.03,17.696C132.03,17.504 132.068,17.317 132.142,17.136C132.217,16.944 132.366,16.763 132.59,16.592C132.814,16.421 133.15,16.267 133.598,16.128C133.972,16 134.345,15.877 134.718,15.76Z" style="fill:white;"/>
                <path d="M140.323,19.84C140.739,19.947 141.198,20 141.699,20C142.392,20 142.974,19.893 143.443,19.68C143.923,19.467 144.286,19.184 144.531,18.832C144.776,18.469 144.899,18.069 144.899,17.632C144.899,17.259 144.814,16.928 144.643,16.64C144.483,16.352 144.222,16.091 143.859,15.856C143.496,15.621 143.038,15.408 142.483,15.216L142.051,15.072C141.496,14.88 141.107,14.693 140.883,14.512C140.659,14.32 140.547,14.053 140.547,13.712C140.547,13.381 140.675,13.115 140.931,12.912C141.187,12.699 141.576,12.592 142.099,12.592C142.419,12.592 142.718,12.64 142.995,12.736C143.084,12.762 143.172,12.793 143.258,12.828L143.523,14.176L144.419,14.176L144.467,12.416C144.147,12.235 143.79,12.091 143.395,11.984C143,11.867 142.574,11.808 142.115,11.808C141.496,11.808 140.968,11.915 140.531,12.128C140.094,12.331 139.758,12.603 139.523,12.944C139.288,13.285 139.171,13.664 139.171,14.08C139.171,14.464 139.262,14.8 139.443,15.088C139.624,15.365 139.88,15.605 140.211,15.808C140.542,16.011 140.936,16.192 141.395,16.352L141.987,16.56C142.52,16.731 142.91,16.923 143.155,17.136C143.4,17.339 143.523,17.611 143.523,17.952C143.523,18.187 143.459,18.405 143.331,18.608C143.203,18.8 143.006,18.955 142.739,19.072C142.483,19.179 142.147,19.232 141.731,19.232C141.326,19.232 140.952,19.184 140.611,19.088C140.513,19.057 140.418,19.024 140.327,18.987L140.003,17.536L139.075,17.536L139.139,19.424C139.512,19.595 139.907,19.733 140.323,19.84Z" style="fill:white;fill-rule:nonzero;"/>
                <path d="M150.132,20C149.353,20 148.676,19.84 148.1,19.52C147.535,19.189 147.097,18.725 146.788,18.128C146.489,17.531 146.34,16.821 146.34,16C146.34,15.179 146.5,14.453 146.82,13.824C147.151,13.195 147.599,12.704 148.164,12.352C148.729,11.989 149.364,11.808 150.068,11.808C150.687,11.808 151.231,11.936 151.7,12.192C152.169,12.437 152.537,12.795 152.804,13.264C153.071,13.723 153.204,14.277 153.204,14.928C153.204,15.12 153.193,15.312 153.172,15.504C153.151,15.685 153.124,15.835 153.092,15.952L147.813,15.952C147.825,16.555 147.931,17.078 148.132,17.52C148.356,17.979 148.665,18.331 149.06,18.576C149.465,18.811 149.94,18.928 150.484,18.928C151.028,18.928 151.487,18.832 151.86,18.64C152.244,18.448 152.585,18.176 152.884,17.824L153.332,18.192C153.108,18.544 152.852,18.859 152.564,19.136C152.287,19.403 151.951,19.616 151.556,19.776C151.172,19.925 150.697,20 150.132,20ZM148.116,13.984C147.97,14.322 147.877,14.738 147.836,15.232L151.124,15.232C151.423,15.179 151.615,15.083 151.7,14.944C151.785,14.795 151.828,14.619 151.828,14.416C151.828,14.021 151.759,13.691 151.62,13.424C151.481,13.157 151.279,12.955 151.012,12.816C150.745,12.677 150.431,12.608 150.068,12.608C149.673,12.608 149.3,12.72 148.948,12.944C148.607,13.168 148.329,13.515 148.116,13.984Z" style="fill:white;"/>
                <path d="M156.01,19.84C156.426,19.947 156.885,20 157.386,20C158.08,20 158.661,19.893 159.13,19.68C159.61,19.467 159.973,19.184 160.218,18.832C160.464,18.469 160.586,18.069 160.586,17.632C160.586,17.259 160.501,16.928 160.33,16.64C160.17,16.352 159.909,16.091 159.546,15.856C159.184,15.621 158.725,15.408 158.17,15.216L157.738,15.072C157.184,14.88 156.794,14.693 156.57,14.512C156.346,14.32 156.234,14.053 156.234,13.712C156.234,13.381 156.362,13.115 156.618,12.912C156.874,12.699 157.264,12.592 157.786,12.592C158.106,12.592 158.405,12.64 158.682,12.736C158.772,12.762 158.859,12.793 158.946,12.828L159.21,14.176L160.106,14.176L160.154,12.416C159.834,12.235 159.477,12.091 159.082,11.984C158.688,11.867 158.261,11.808 157.802,11.808C157.184,11.808 156.656,11.915 156.218,12.128C155.781,12.331 155.445,12.603 155.21,12.944C154.976,13.285 154.858,13.664 154.858,14.08C154.858,14.464 154.949,14.8 155.13,15.088C155.312,15.365 155.568,15.605 155.898,15.808C156.229,16.011 156.624,16.192 157.082,16.352L157.674,16.56C158.208,16.731 158.597,16.923 158.842,17.136C159.088,17.339 159.21,17.611 159.21,17.952C159.21,18.187 159.146,18.405 159.018,18.608C158.89,18.8 158.693,18.955 158.426,19.072C158.17,19.179 157.834,19.232 157.418,19.232C157.013,19.232 156.64,19.184 156.298,19.088C156.201,19.057 156.106,19.024 156.014,18.987L155.69,17.536L154.762,17.536L154.826,19.424C155.2,19.595 155.594,19.733 156.01,19.84Z" style="fill:white;fill-rule:nonzero;"/>
            </g>
            <path d="M168.844,11.882L168.844,17.014C168.855,17.762 168.866,18.499 168.877,19.225L170.181,19.225C171.457,19.225 172.436,18.812 173.118,17.987C173.8,17.151 174.141,15.985 174.141,14.489C174.141,12.938 173.805,11.755 173.134,10.941C172.463,10.127 171.528,9.72 170.329,9.72L168.877,9.72C168.866,10.424 168.855,11.145 168.844,11.882ZM165.726,9.638L165.726,8.961L170.593,8.961C171.649,8.961 172.579,9.176 173.382,9.605C174.185,10.023 174.812,10.644 175.263,11.469C175.714,12.283 175.939,13.29 175.939,14.489C175.939,15.677 175.692,16.684 175.197,17.508C174.702,18.322 174.025,18.944 173.167,19.373C172.32,19.791 171.358,20 170.28,20L165.726,20L165.726,19.323L167.244,19.142C167.266,18.438 167.277,17.723 167.277,16.997L167.277,11.948C167.277,11.233 167.266,10.523 167.244,9.819L165.726,9.638Z" style="fill:rgb(0,150,173);fill-rule:nonzero;"/>
            <path d="M181.235,20.215C180.597,20.215 179.987,20.066 179.404,19.769C178.832,19.461 178.364,19.005 178.001,18.4C177.638,17.784 177.457,17.025 177.457,16.123C177.457,15.21 177.638,14.445 178.001,13.829C178.364,13.202 178.832,12.735 179.404,12.427C179.987,12.108 180.597,11.948 181.235,11.948C181.873,11.948 182.478,12.108 183.05,12.427C183.633,12.735 184.106,13.202 184.469,13.829C184.843,14.445 185.03,15.21 185.03,16.123C185.03,17.025 184.843,17.784 184.469,18.4C184.106,19.005 183.633,19.461 183.05,19.769C182.478,20.066 181.873,20.215 181.235,20.215ZM181.235,19.472C181.95,19.472 182.5,19.192 182.885,18.631C183.27,18.059 183.463,17.223 183.463,16.123C183.463,15.012 183.27,14.165 182.885,13.582C182.5,12.999 181.95,12.707 181.235,12.707C180.52,12.707 179.97,12.999 179.585,13.582C179.211,14.165 179.024,15.012 179.024,16.123C179.024,17.223 179.211,18.059 179.585,18.631C179.97,19.192 180.52,19.472 181.235,19.472Z" style="fill:rgb(0,150,173);fill-rule:nonzero;"/>
            <path d="M190.176,20.215C189.043,20.215 188.141,19.846 187.47,19.109C186.799,18.372 186.463,17.371 186.463,16.106C186.463,15.237 186.639,14.495 186.991,13.879C187.354,13.252 187.827,12.773 188.41,12.443C188.993,12.113 189.615,11.948 190.275,11.948C190.77,11.948 191.226,12.042 191.644,12.229C192.062,12.416 192.409,12.674 192.684,13.004C192.959,13.323 193.129,13.686 193.195,14.093C193.118,14.511 192.865,14.72 192.436,14.72C192.161,14.72 191.952,14.649 191.809,14.506C191.677,14.352 191.584,14.159 191.529,13.928L191.232,12.839C191.078,12.784 190.924,12.751 190.77,12.74C190.627,12.718 190.484,12.707 190.341,12.707C189.637,12.707 189.054,12.982 188.592,13.532C188.141,14.082 187.915,14.885 187.915,15.941C187.915,16.975 188.163,17.767 188.658,18.317C189.153,18.867 189.785,19.142 190.555,19.142C191.028,19.142 191.463,19.038 191.859,18.829C192.255,18.609 192.579,18.295 192.832,17.888L193.245,18.103C193.014,18.785 192.64,19.307 192.123,19.67C191.606,20.033 190.957,20.215 190.176,20.215Z" style="fill:rgb(0,150,173);fill-rule:nonzero;"/>
            <path d="M197.127,20.215C196.665,20.215 196.241,20.16 195.856,20.05C195.471,19.951 195.075,19.797 194.668,19.588L194.602,17.773L195.51,17.773L195.823,19.208C196.208,19.384 196.654,19.472 197.16,19.472C197.787,19.472 198.249,19.357 198.546,19.126C198.854,18.895 199.008,18.592 199.008,18.218C199.008,17.866 198.881,17.586 198.628,17.377C198.375,17.157 197.99,16.959 197.473,16.783L196.714,16.502C196.109,16.282 195.625,15.996 195.262,15.644C194.899,15.292 194.718,14.836 194.718,14.275C194.718,13.868 194.828,13.488 195.048,13.136C195.268,12.784 195.592,12.498 196.021,12.278C196.45,12.058 196.973,11.948 197.589,11.948C198.04,11.948 198.447,12.009 198.81,12.13C199.184,12.24 199.547,12.405 199.899,12.625L199.833,14.307L198.975,14.307L198.711,12.987C198.337,12.801 197.957,12.707 197.572,12.707C197.066,12.707 196.681,12.811 196.417,13.02C196.164,13.218 196.038,13.488 196.038,13.829C196.038,14.192 196.148,14.467 196.368,14.654C196.599,14.841 196.995,15.039 197.556,15.248L198.067,15.429C198.892,15.737 199.475,16.089 199.816,16.485C200.168,16.882 200.344,17.338 200.344,17.855C200.344,18.273 200.223,18.663 199.981,19.027C199.739,19.379 199.382,19.665 198.909,19.885C198.436,20.104 197.842,20.214 197.127,20.214Z" style="fill:rgb(0,150,173);fill-rule:nonzero;"/>
        </g>
    </g>
</svg>
