<svg width="313" height="35" viewBox="0 0 313 35" fill="none" xmlns="http://www.w3.org/2000/svg">
<path d="M189.465 9.4429C190.04 9.4429 190.544 9.26312 190.903 8.90355C191.299 8.54399 191.515 8.07656 191.515 7.50126C191.515 6.92596 191.299 6.45853 190.903 6.09897C190.508 5.73941 190.04 5.55963 189.465 5.55963C188.89 5.55963 188.386 5.73941 187.991 6.09897C187.595 6.45853 187.38 6.92596 187.38 7.50126C187.38 8.07656 187.595 8.54399 187.991 8.90355C188.386 9.26312 188.89 9.4429 189.465 9.4429Z" fill="#FAFAFA"/>
<path d="M78.756 17.5691C78.756 16.4544 78.5403 15.4836 78.0729 14.6926C77.6414 13.8656 77.0301 13.2543 76.2391 12.7869C75.4481 12.3195 74.5132 12.1037 73.4345 12.1037C72.2839 12.1037 71.2052 12.3914 70.1985 12.9307C69.1917 13.4701 68.3647 14.2611 67.7534 15.3398C67.1422 16.3825 66.8186 17.605 66.8186 19.0792C66.8186 20.5534 67.1062 21.704 67.6456 22.7468C68.1849 23.7535 68.94 24.5446 69.9108 25.0839C70.8816 25.6233 71.9963 25.9109 73.2547 25.9109C74.5132 25.9109 75.6278 25.6233 76.5267 25.0839C77.4616 24.5086 78.1807 23.7535 78.7201 22.7468L77.9291 22.0276C77.4616 22.531 76.9582 22.9625 76.4189 23.2861C75.8795 23.6097 75.1964 23.7535 74.4053 23.7535C73.2547 23.7535 72.3199 23.358 71.5288 22.567C70.7738 21.7759 70.3782 20.6253 70.3063 19.0433H78.6482C78.6841 18.6478 78.756 18.1444 78.756 17.5691ZM75.3402 17.3893C75.1245 17.6769 74.693 17.7848 74.0458 17.7848H70.3063C70.3782 16.7061 70.558 15.8432 70.8457 15.196C71.1693 14.5487 71.5288 14.1173 71.9244 13.8296C72.3558 13.542 72.7873 13.3982 73.2188 13.3982C73.902 13.3982 74.4772 13.6498 74.9447 14.1892C75.4121 14.7285 75.6638 15.4117 75.6638 16.2387C75.6278 16.7061 75.52 17.1016 75.3402 17.3893Z" fill="#FAFAFA"/>
<path d="M98.6398 13.2184C97.705 12.4633 96.4105 12.0678 94.7566 12.0678C93.1026 12.0678 91.8082 12.4633 90.8733 13.2903C89.9384 14.0814 89.471 15.16 89.471 16.4904C89.471 18.2523 90.1901 19.5107 91.6284 20.2299C90.9452 20.8411 90.4418 21.4164 90.1182 21.9558C89.7946 22.4591 89.6508 22.9985 89.6508 23.5019C89.6508 24.0053 89.7946 24.4367 90.0463 24.7963C90.3339 25.1559 90.7295 25.4435 91.3048 25.6233C90.4418 26.0548 89.7946 26.4862 89.4351 26.9537C89.0395 27.4571 88.8597 27.9964 88.8597 28.5717C88.8597 29.147 89.0395 29.7223 89.3991 30.1897C89.7946 30.6931 90.4059 31.0527 91.2329 31.3763C92.0958 31.6639 93.2104 31.8078 94.6127 31.8078C96.2308 31.8078 97.5611 31.592 98.6398 31.1246C99.7185 30.6572 100.546 30.0819 101.085 29.3268C101.66 28.5717 101.912 27.7807 101.912 26.9177C101.912 25.7671 101.516 24.8682 100.761 24.185C100.006 23.5019 98.7477 23.1783 96.9499 23.1783H93.534C92.9228 23.1783 92.5273 23.0704 92.2756 22.8906C92.0598 22.6749 91.952 22.4232 91.952 22.0636C91.952 21.5243 92.1318 21.0209 92.4554 20.5535C93.1385 20.7692 93.8936 20.8411 94.7206 20.8411C96.3746 20.8411 97.705 20.4456 98.6039 19.6546C99.5387 18.8276 100.006 17.7489 100.006 16.4545C100.006 15.5556 99.8264 14.8005 99.4309 14.1533H102.056V12.2476L101.66 11.9599L98.6398 13.2184ZM92.0239 25.9829C92.5632 26.0907 93.1385 26.1626 93.8217 26.1626H96.842C97.705 26.1626 98.3162 26.3424 98.6758 26.702C99.0353 27.0615 99.2151 27.493 99.2151 27.9964C99.2151 28.6796 98.8556 29.2549 98.1005 29.7223C97.3814 30.1897 96.3027 30.4414 94.8644 30.4414C93.7138 30.4414 92.8509 30.2616 92.2396 29.8661C91.6284 29.4706 91.3048 28.8594 91.3048 28.0324C91.2688 27.3492 91.5205 26.666 92.0239 25.9829ZM96.4465 18.8276C96.051 19.4388 95.4757 19.7265 94.7206 19.7265C93.9655 19.7265 93.4262 19.4388 93.0666 18.8635C92.6711 18.2882 92.4913 17.4972 92.4913 16.5264C92.4913 15.5556 92.7071 14.7645 93.1026 14.1892C93.534 13.578 94.1094 13.2903 94.8285 13.2903C95.5476 13.2903 96.1229 13.578 96.4825 14.1533C96.878 14.7286 97.0937 15.4836 97.0937 16.4545C97.0578 17.4253 96.878 18.2523 96.4465 18.8276Z" fill="#FAFAFA"/>
<path d="M116.618 21.8839V16.9579C116.618 15.2679 116.294 14.0454 115.647 13.2544C115 12.4634 114.065 12.0678 112.914 12.0678C111.224 12.0678 109.642 12.8589 108.276 14.4769V9.62282L108.384 5.77551L107.988 5.52381L103.134 6.74632V7.82501L105.112 8.11266V21.8479C105.112 22.639 105.112 23.3581 105.076 24.0413L103.278 24.4008V25.5155H110.002V24.4008L108.384 24.0772C108.348 23.394 108.348 22.639 108.348 21.8839V15.9511C109.427 14.9084 110.505 14.405 111.512 14.405C112.195 14.405 112.699 14.6207 112.95 15.0163C113.238 15.4118 113.382 16.1668 113.382 17.2096V21.8839C113.382 22.639 113.382 23.3581 113.346 24.0413L111.62 24.4008V25.5155H118.308V24.4008L116.654 24.0772C116.618 23.394 116.618 22.6749 116.618 21.8839Z" fill="#FAFAFA"/>
<path d="M67.7534 7.46541H61.7487V8.72388L63.978 9.04749L60.67 20.949L57.0385 9.01153L59.5914 8.72388V7.46541H51.8248V8.72388L54.1979 9.01153L50.4585 20.8052L47.3663 9.01153L49.6315 8.72388V7.46541H41.7211V8.72388L43.6987 8.93962L48.5888 25.5873H50.4585L54.5575 12.3195L58.8722 25.5873H60.742L65.4522 9.04749L67.6456 8.68792V7.46541H67.7534Z" fill="#FAFAFA"/>
<path d="M84.1135 9.55087C84.6888 9.55087 85.1922 9.37109 85.5518 9.01153C85.9473 8.65197 86.163 8.18454 86.163 7.60924C86.163 7.03394 85.9473 6.56651 85.5518 6.20695C85.1562 5.84738 84.6888 5.6676 84.1135 5.6676C83.5382 5.6676 83.0348 5.84738 82.6393 6.20695C82.2438 6.56651 82.0281 7.03394 82.0281 7.60924C82.0281 8.18454 82.2438 8.65197 82.6393 9.01153C83.0348 9.37109 83.5382 9.55087 84.1135 9.55087Z" fill="#FAFAFA"/>
<path d="M85.7315 21.8478V16.1667L85.8035 12.3194L85.372 12.0317L80.4819 13.7576V14.8004L82.4236 15.0521C82.4595 15.5914 82.4955 16.1308 82.4955 16.6341C82.5314 17.1375 82.5314 17.7488 82.5314 18.4679V21.8118C82.5314 22.6029 82.5314 23.322 82.4955 24.0052L80.6977 24.3647V25.4794H87.4574V24.3647L85.8035 24.0411C85.7675 23.3579 85.7315 22.6388 85.7315 21.8478Z" fill="#FAFAFA"/>
<path d="M206.041 24.0772C205.502 24.0772 205.25 23.6817 205.25 22.8547V16.9219C205.25 15.1601 204.89 13.8657 204.171 13.1465C203.452 12.3914 202.302 11.9959 200.719 11.9959C199.137 11.9959 197.735 12.3195 196.728 12.9667C195.722 13.614 195.146 14.4769 195.002 15.5915C195.146 16.4185 195.65 16.8141 196.513 16.8141C196.98 16.8141 197.34 16.6702 197.663 16.3466C197.987 16.023 198.167 15.5556 198.238 14.9084L198.562 13.3982C198.778 13.3623 198.958 13.3263 199.137 13.3263C199.353 13.2904 199.533 13.2904 199.677 13.2904C200.576 13.2904 201.187 13.5061 201.51 13.9735C201.87 14.405 202.05 15.2679 202.05 16.5264V17.2815C201.582 17.4253 201.115 17.5332 200.648 17.677C200.18 17.8208 199.785 17.9287 199.425 18.0725C198.131 18.504 197.124 18.8995 196.405 19.367C195.722 19.7984 195.218 20.2659 194.966 20.7692C194.679 21.2726 194.571 21.812 194.571 22.3873C194.571 23.5019 194.931 24.3649 195.614 24.9402C196.333 25.5155 197.196 25.8031 198.203 25.8031C199.065 25.8031 199.785 25.6233 200.324 25.2997C200.863 24.9402 201.475 24.4008 202.158 23.7177C202.337 24.3649 202.625 24.8682 203.093 25.2278C203.56 25.5874 204.135 25.7672 204.854 25.7672C205.502 25.7672 206.041 25.6233 206.472 25.3716C206.94 25.084 207.299 24.6525 207.659 24.0413L207.048 23.5019C206.688 23.8615 206.365 24.0772 206.041 24.0772ZM202.014 22.6749C201.367 23.1424 200.863 23.43 200.576 23.5738C200.252 23.7176 199.964 23.7896 199.641 23.7896C199.101 23.7896 198.634 23.6457 198.238 23.3221C197.879 22.9985 197.699 22.4592 197.699 21.776C197.699 21.2367 197.879 20.7333 198.203 20.2659C198.562 19.7984 199.173 19.367 200.072 19.0074C200.324 18.8995 200.576 18.8276 200.935 18.7197C201.295 18.6119 201.654 18.504 202.014 18.3602V22.6749Z" fill="#FAFAFA"/>
<path d="M215.174 17.4972L214.095 17.1736C213.16 16.85 212.549 16.5624 212.189 16.2747C211.866 15.9511 211.686 15.5556 211.686 15.0882C211.686 14.5488 211.902 14.1533 212.297 13.8297C212.693 13.5061 213.268 13.3623 213.987 13.3623C214.599 13.3623 215.174 13.4701 215.677 13.6859L216.181 15.9871H217.978L218.122 13.1106C217.475 12.751 216.828 12.4634 216.181 12.2836C215.533 12.0678 214.85 11.9959 214.059 11.9959C212.945 11.9959 212.01 12.1757 211.219 12.5712C210.464 12.9308 209.888 13.4342 209.493 14.0814C209.097 14.6926 208.882 15.3758 208.882 16.1669C208.882 17.1377 209.169 17.9287 209.744 18.5759C210.356 19.2231 211.147 19.6906 212.154 20.0142L213.52 20.4816C214.383 20.7692 214.994 21.0928 215.354 21.4165C215.713 21.7401 215.893 22.1356 215.893 22.639C215.893 23.2143 215.677 23.6817 215.21 24.0053C214.742 24.3289 214.059 24.5087 213.124 24.5087C212.369 24.5087 211.65 24.3649 211.003 24.1132L210.5 21.5962H208.666L208.702 24.7604C209.385 25.1559 210.068 25.4076 210.787 25.5874C211.506 25.8031 212.261 25.875 213.088 25.875C214.922 25.875 216.324 25.4795 217.295 24.6885C218.302 23.8974 218.805 22.8907 218.805 21.6681C218.805 20.7333 218.518 19.9063 217.978 19.2591C217.439 18.504 216.504 17.9287 215.174 17.4972Z" fill="#FAFAFA"/>
<path d="M232.685 17.4613C232.685 16.3466 232.469 15.3758 232.001 14.5848C231.57 13.7578 230.959 13.1465 230.168 12.6791C229.377 12.2117 228.442 11.9959 227.363 11.9959C226.212 11.9959 225.134 12.2836 224.127 12.8229C223.12 13.3623 222.293 14.1533 221.682 15.232C221.071 16.2747 220.747 17.4972 220.747 18.9714C220.747 20.4097 221.035 21.5962 221.574 22.639C222.113 23.6457 222.868 24.4368 223.839 24.9761C224.81 25.5155 225.925 25.8031 227.183 25.8031C228.442 25.8031 229.556 25.5155 230.455 24.9761C231.39 24.4008 232.109 23.6457 232.649 22.639L231.858 21.9198C231.39 22.4232 230.887 22.8547 230.347 23.1783C229.808 23.5019 229.125 23.6457 228.334 23.6457C227.183 23.6457 226.248 23.2502 225.457 22.4592C224.702 21.6681 224.307 20.5175 224.235 18.9355H232.577C232.649 18.54 232.685 18.0366 232.685 17.4613ZM229.269 17.2455C229.053 17.5332 228.621 17.6411 227.974 17.6411H224.235C224.307 16.5624 224.486 15.6994 224.774 15.0522C225.098 14.405 225.457 13.9735 225.853 13.6859C226.284 13.3982 226.716 13.2544 227.147 13.2544C227.83 13.2544 228.406 13.5061 228.873 14.0454C229.341 14.5848 229.592 15.2679 229.592 16.0949C229.592 16.5983 229.484 16.9938 229.269 17.2455Z" fill="#FAFAFA"/>
<path d="M125.895 24.1131C125.463 24.1131 125.104 23.9693 124.816 23.6457C124.564 23.3221 124.42 22.8547 124.42 22.1715V14.1533H127.728V12.4633H124.456L124.564 8.72388H122.371L121.328 12.4633L119.135 12.751V14.1533H121.148V19.9422C121.148 20.4816 121.148 20.913 121.112 21.3086V22.4951C121.112 23.6817 121.436 24.5806 122.047 25.1199C122.659 25.6593 123.522 25.9469 124.6 25.9469C125.463 25.9469 126.182 25.8031 126.794 25.4795C127.405 25.1559 127.872 24.7244 128.196 24.1491L127.549 23.4659C126.973 23.8614 126.398 24.0772 125.895 24.1131Z" fill="#FAFAFA"/>
<path d="M244.119 19.1512C243.543 18.468 242.608 17.9287 241.278 17.4612L240.199 17.1376C239.264 16.814 238.653 16.5264 238.294 16.2387C237.97 15.9151 237.79 15.5196 237.79 15.0522C237.79 14.5128 238.006 14.1173 238.402 13.7937C238.797 13.4701 239.372 13.3263 240.091 13.3263C240.703 13.3263 241.278 13.4341 241.781 13.6499L242.285 15.9511H244.083L244.226 13.0746C243.579 12.715 242.932 12.4274 242.285 12.2476C241.638 12.0319 240.954 11.9599 240.163 11.9599C239.049 11.9599 238.114 12.1397 237.323 12.5352C236.568 12.8948 235.992 13.3982 235.597 14.0454C235.201 14.6567 234.986 15.3398 234.986 16.1309C234.986 17.1017 235.273 17.8927 235.849 18.5399C236.46 19.1871 237.251 19.6546 238.258 19.9782L239.624 20.4456C240.487 20.7332 241.098 21.0569 241.458 21.3805C241.817 21.7041 241.997 22.0996 241.997 22.603C241.997 23.1783 241.781 23.6457 241.314 23.9693C240.847 24.2929 240.163 24.4727 239.229 24.4727C238.473 24.4727 237.754 24.3289 237.107 24.0772L236.604 21.5602H234.77L234.806 24.7244C235.489 25.1199 236.172 25.3716 236.891 25.5514C237.611 25.7671 238.366 25.839 239.193 25.839C241.026 25.839 242.429 25.4435 243.399 24.6525C244.406 23.8614 244.91 22.8547 244.91 21.6322C244.982 20.6613 244.694 19.8343 244.119 19.1512Z" fill="#FAFAFA"/>
<path d="M135.819 17.6051L134.74 17.2815C133.805 16.9579 133.194 16.6702 132.834 16.3826C132.511 16.0589 132.331 15.6634 132.331 15.196C132.331 14.6567 132.547 14.2611 132.942 13.9375C133.338 13.6139 133.913 13.4701 134.632 13.4701C135.243 13.4701 135.819 13.578 136.322 13.7937L136.825 16.0949H138.623L138.767 13.2544C138.12 12.8948 137.473 12.6072 136.825 12.4274C136.178 12.2116 135.495 12.1397 134.704 12.1397C133.589 12.1397 132.654 12.3195 131.863 12.715C131.108 13.0746 130.533 13.578 130.137 14.2252C129.742 14.8364 129.526 15.5196 129.526 16.3106C129.526 17.2815 129.814 18.0725 130.389 18.7197C131 19.3669 131.791 19.8343 132.798 20.1579L134.165 20.6254C135.028 20.913 135.639 21.2366 135.998 21.5602C136.358 21.8839 136.538 22.2794 136.538 22.7828C136.538 23.3581 136.322 23.8255 135.854 24.1491C135.387 24.4727 134.704 24.6525 133.769 24.6525C133.014 24.6525 132.295 24.5087 131.648 24.257L131.144 21.74H129.31L129.346 24.9042C130.03 25.2997 130.713 25.5514 131.432 25.7312C132.151 25.9469 132.906 26.0188 133.733 26.0188C135.567 26.0188 136.969 25.6233 137.94 24.8323C138.947 24.0412 139.45 23.0344 139.45 21.8119C139.45 20.8771 139.162 20.0501 138.623 19.4029C138.084 18.6118 137.149 18.0365 135.819 17.6051Z" fill="#FAFAFA"/>
<path d="M191.083 21.74V16.0589L191.155 12.2116L190.724 11.9239L185.834 13.6498V14.6926L187.775 14.9443C187.811 15.4836 187.811 16.023 187.811 16.5263C187.847 17.0297 187.847 17.641 187.847 18.3601V21.704C187.847 22.4951 187.847 23.2142 187.811 23.8974L186.013 24.2569V25.3716H192.773V24.2569L191.119 23.9333C191.083 23.2501 191.083 22.531 191.083 21.74Z" fill="#FAFAFA"/>
<path d="M157.356 14.6206L159.478 14.9802C159.262 15.951 159.01 16.8499 158.687 17.6769C158.363 18.4679 158.003 19.259 157.5 20.086C157.033 19.6185 156.601 19.1511 156.134 18.6477C155.666 18.1443 155.199 17.605 154.66 17.0297C154.192 16.5263 153.797 16.0948 153.437 15.7353C153.077 15.3397 152.79 15.0161 152.538 14.7285C153.94 14.0453 154.947 13.3622 155.63 12.643C156.278 11.9239 156.601 11.0969 156.601 10.1621C156.601 9.11933 156.206 8.29233 155.451 7.64512C154.695 6.99791 153.581 6.67431 152.143 6.67431C150.704 6.67431 149.59 7.03387 148.727 7.75299C147.828 8.47212 147.396 9.47889 147.396 10.7374C147.396 11.4205 147.54 12.1396 147.792 12.8228C148.044 13.5419 148.511 14.2611 149.158 15.0521C149.194 15.0881 149.23 15.0881 149.23 15.124C149.266 15.16 149.266 15.16 149.302 15.1959C147.9 15.8791 146.857 16.6342 146.174 17.5331C145.491 18.396 145.167 19.4028 145.167 20.5534C145.167 21.4523 145.383 22.2433 145.85 22.9984C146.318 23.7175 146.965 24.3288 147.828 24.7603C148.691 25.1917 149.698 25.4075 150.848 25.4075C152.143 25.4075 153.221 25.1917 154.084 24.7962C154.947 24.3648 155.666 23.8614 156.242 23.2861C156.385 23.4299 156.493 23.5378 156.637 23.6816C156.781 23.8254 156.925 23.9333 157.033 24.0771C157.572 24.5805 158.111 24.9401 158.651 25.1198C159.19 25.3356 159.837 25.4075 160.628 25.4075C161.024 25.4075 161.347 25.3715 161.707 25.3356C162.067 25.2996 162.462 25.2277 163.001 25.0839L163.181 23.5737L160.556 23.1063C160.161 22.6748 159.801 22.3153 159.442 21.9197C159.082 21.5602 158.759 21.2006 158.435 20.841C159.082 19.9062 159.621 18.9713 160.053 18.0365C160.52 17.1016 160.916 16.0229 161.24 14.8364L163.217 14.5128V13.3262H157.464L157.356 14.6206ZM150.596 8.36425C151.028 7.93277 151.531 7.71704 152.143 7.71704C152.754 7.71704 153.257 7.93277 153.653 8.32829C154.048 8.72381 154.264 9.26315 154.264 9.98228C154.264 10.6654 154.048 11.3127 153.653 11.9599C153.221 12.6071 152.646 13.2543 151.927 13.9015C151.783 13.7217 151.639 13.5419 151.531 13.3981C151.388 13.2183 151.28 13.0745 151.136 12.8947C150.704 12.3194 150.417 11.7801 150.273 11.3486C150.129 10.8812 150.057 10.4497 150.057 10.0182C149.985 9.37102 150.201 8.83168 150.596 8.36425ZM152.107 23.5018C151.316 23.5018 150.632 23.322 150.021 22.9984C149.446 22.6389 148.978 22.2074 148.655 21.5961C148.331 21.0208 148.151 20.3736 148.151 19.6905C148.151 19.0432 148.295 18.432 148.547 17.7848C148.799 17.1376 149.266 16.5623 149.949 16.0589C150.309 16.4903 150.704 16.9937 151.136 17.5331C151.603 18.0724 152.143 18.7196 152.754 19.4747C153.149 19.9421 153.545 20.4455 153.976 20.9489C154.408 21.4523 154.875 21.9557 155.343 22.4591C154.444 23.1422 153.365 23.4659 152.107 23.5018Z" fill="#FAFAFA"/>
<path d="M178.858 15.8791C180.476 15.5555 181.627 15.0521 182.274 14.261C182.921 13.47 183.245 12.607 183.245 11.6722C183.245 10.4137 182.741 9.37098 181.735 8.57995C180.728 7.75295 179.182 7.35744 177.096 7.35744H168.754V8.65186L171.056 8.90355C171.092 10.0542 171.092 11.2407 171.092 12.3913V20.4455C171.092 21.5961 171.056 22.7467 171.056 23.8973L168.754 24.149V25.4434H176.341C177.851 25.4434 179.11 25.2996 180.117 25.0119C181.123 24.7243 181.95 24.3288 182.526 23.8254C183.137 23.322 183.568 22.7826 183.82 22.2074C184.108 21.5961 184.216 21.0208 184.216 20.4095C184.216 19.2589 183.784 18.2881 182.957 17.4611C182.13 16.6341 180.764 16.1308 178.858 15.8791ZM174.615 12.2115C174.651 11.0609 174.651 9.91033 174.651 8.75973H176.089C177.312 8.75973 178.247 9.01142 178.822 9.51481C179.433 10.0182 179.757 10.8092 179.757 11.9239C179.757 13.0385 179.433 13.9374 178.786 14.5127C178.139 15.088 177.096 15.3397 175.694 15.3397H174.579L174.615 12.2115ZM175.946 24.0052H174.651C174.615 22.8546 174.615 21.704 174.615 20.5174V16.7061H175.838C177.456 16.7061 178.642 17.0297 179.397 17.6409C180.153 18.2522 180.548 19.1511 180.548 20.4095C180.548 22.7826 179.038 24.0052 175.946 24.0052Z" fill="#FAFAFA"/>
<path d="M3.10415 5.88327C4.18284 5.88327 5.04579 5.02032 5.04579 3.94164C5.04579 2.86295 4.18284 2 3.10415 2C2.02547 2 1.16252 2.86295 1.16252 3.94164C1.16252 5.02032 2.02547 5.88327 3.10415 5.88327Z" fill="#FCBC32"/>
<path d="M3.78735 14.6567C5.44134 14.2612 6.48407 12.6072 6.08855 10.9532C5.69303 9.29923 4.03905 8.2565 2.38506 8.65202C0.731076 9.04753 -0.311654 10.7015 0.083864 12.3555C0.479382 14.0454 2.13337 15.0522 3.78735 14.6567Z" fill="#FCBC32"/>
<path d="M3.78735 30.0819C5.44134 29.6864 6.48407 28.0324 6.08855 26.3784C5.69303 24.7244 4.03905 23.6817 2.38506 24.0772C0.731076 24.4727 -0.311654 26.1267 0.083864 27.7807C0.479382 29.4347 2.13337 30.4774 3.78735 30.0819Z" fill="#FCBC32"/>
<path d="M5.00989 19.3668C5.00989 18.2881 4.14694 17.4252 3.06825 17.4252C1.98957 17.4252 1.12662 18.2881 1.12662 19.3668C1.12662 20.4455 1.98957 21.3084 3.06825 21.3084C4.14694 21.3084 5.00989 20.4455 5.00989 19.3668Z" fill="#FCBC32"/>
<path d="M14.9337 19.1512C13.2438 19.1512 11.8415 20.5175 11.8415 22.2434C11.8415 23.9334 13.2078 25.3356 14.9337 25.3356C16.6237 25.3356 18.026 23.9693 18.026 22.2434C17.99 20.5175 16.6237 19.1512 14.9337 19.1512Z" fill="#FCBC32"/>
<path d="M14.9338 27.9964C13.8551 27.9964 12.9922 28.8594 12.9922 29.9381C12.9922 31.0168 13.8551 31.8797 14.9338 31.8797C16.0125 31.8797 16.8754 31.0168 16.8754 29.9381C16.8395 28.8594 15.9765 27.9964 14.9338 27.9964Z" fill="#FCBC32"/>
<path d="M14.9338 16.4544C16.0125 16.4544 16.8754 15.5914 16.8754 14.5127C16.8754 13.434 16.0125 12.5711 14.9338 12.5711C13.8551 12.5711 12.9922 13.434 12.9922 14.5127C12.9922 15.5914 13.8551 16.4544 14.9338 16.4544Z" fill="#FCBC32"/>
<path d="M15.2214 8.72389C16.2641 8.54411 16.9833 7.57329 16.8035 6.53056C16.6237 5.48783 15.6529 4.76871 14.6101 4.94849C13.5674 5.12827 12.8483 6.09908 13.0281 7.14181C13.2079 8.18454 14.1787 8.86771 15.2214 8.72389Z" fill="#FCBC32"/>
<path d="M28.9207 13.8297C30.1073 12.6431 30.1073 10.6655 28.9207 9.47896C27.7341 8.29241 25.7566 8.29241 24.57 9.47896C23.3835 10.6655 23.3835 12.6431 24.57 13.8297C25.7566 15.0522 27.7341 15.0522 28.9207 13.8297Z" fill="#FCBC32"/>
<path d="M26.7633 5.88327C27.842 5.88327 28.705 5.02032 28.705 3.94164C28.705 2.86295 27.842 2 26.7633 2C25.6847 2 24.8217 2.86295 24.8217 3.94164C24.8217 5.02032 25.6847 5.88327 26.7633 5.88327Z" fill="#FCBC32"/>
<path d="M26.7633 17.4612C25.6847 17.4612 24.8217 18.3241 24.8217 19.4028C24.8217 20.4815 25.6847 21.3444 26.7633 21.3444C27.842 21.3444 28.705 20.4815 28.705 19.4028C28.669 18.3241 27.8061 17.4612 26.7633 17.4612Z" fill="#FCBC32"/>
<path d="M26.7633 25.1558C25.6847 25.1558 24.8217 26.0187 24.8217 27.0974C24.8217 28.1761 25.6847 29.039 26.7633 29.039C27.842 29.039 28.705 28.1761 28.705 27.0974C28.669 26.0187 27.8061 25.1558 26.7633 25.1558Z" fill="#FCBC32"/>
<path d="M306.148 26.392C305.29 26.392 304.496 26.2893 303.768 26.084C303.059 25.8973 302.35 25.608 301.64 25.216L301.612 21.968H303.488L303.992 24.572C304.664 24.852 305.392 24.992 306.176 24.992C307.128 24.992 307.838 24.824 308.304 24.488C308.771 24.152 309.004 23.6853 309.004 23.088C309.004 22.5653 308.818 22.1453 308.444 21.828C308.071 21.492 307.436 21.1747 306.54 20.876L305.14 20.4C304.095 20.064 303.264 19.5693 302.648 18.916C302.051 18.2627 301.752 17.4413 301.752 16.452C301.752 15.668 301.958 14.9587 302.368 14.324C302.779 13.6707 303.376 13.1573 304.16 12.784C304.963 12.392 305.934 12.196 307.072 12.196C307.875 12.196 308.603 12.2987 309.256 12.504C309.928 12.6907 310.591 12.9707 311.244 13.344L311.104 16.284H309.256L308.752 13.932C308.23 13.708 307.651 13.596 307.016 13.596C306.27 13.596 305.691 13.7547 305.28 14.072C304.87 14.3893 304.664 14.8187 304.664 15.36C304.664 15.864 304.832 16.2747 305.168 16.592C305.523 16.8907 306.176 17.1987 307.128 17.516L308.248 17.852C309.611 18.3187 310.582 18.8973 311.16 19.588C311.739 20.2787 312.028 21.1093 312.028 22.08C312.028 23.3307 311.515 24.3667 310.488 25.188C309.48 25.9907 308.034 26.392 306.148 26.392Z" fill="#13A9BA"/>
<path d="M294.108 26.392C292.839 26.392 291.7 26.1213 290.692 25.58C289.684 25.02 288.891 24.2173 288.312 23.172C287.752 22.108 287.472 20.8293 287.472 19.336C287.472 17.824 287.79 16.536 288.424 15.472C289.078 14.408 289.936 13.596 291 13.036C292.064 12.476 293.222 12.196 294.472 12.196C295.387 12.196 296.208 12.3733 296.936 12.728C297.683 13.064 298.28 13.5213 298.728 14.1C299.195 14.6787 299.475 15.332 299.568 16.06C299.344 16.8813 298.812 17.292 297.972 17.292C296.927 17.292 296.32 16.6387 296.152 15.332L295.788 13.652C295.62 13.6147 295.452 13.5867 295.284 13.568C295.116 13.5493 294.948 13.54 294.78 13.54C294.108 13.54 293.483 13.736 292.904 14.128C292.344 14.5013 291.887 15.0893 291.532 15.892C291.178 16.6947 291 17.712 291 18.944C291 20.6427 291.383 21.94 292.148 22.836C292.932 23.732 293.95 24.18 295.2 24.18C295.947 24.18 296.619 24.012 297.216 23.676C297.814 23.34 298.318 22.8827 298.728 22.304L299.568 22.92C299.102 24.0587 298.402 24.9267 297.468 25.524C296.554 26.1027 295.434 26.392 294.108 26.392Z" fill="#13A9BA"/>
<path d="M278.581 26.392C277.312 26.392 276.164 26.112 275.137 25.552C274.129 24.992 273.326 24.18 272.729 23.116C272.132 22.052 271.833 20.7827 271.833 19.308C271.833 17.8147 272.141 16.536 272.757 15.472C273.392 14.408 274.222 13.596 275.249 13.036C276.276 12.476 277.386 12.196 278.581 12.196C279.776 12.196 280.886 12.476 281.913 13.036C282.94 13.596 283.77 14.408 284.405 15.472C285.04 16.5173 285.357 17.796 285.357 19.308C285.357 20.8013 285.049 22.08 284.433 23.144C283.836 24.1893 283.024 24.992 281.997 25.552C280.989 26.112 279.85 26.392 278.581 26.392ZM278.581 25.02C279.589 25.02 280.354 24.5533 280.877 23.62C281.418 22.6867 281.689 21.2587 281.689 19.336C281.689 15.4907 280.653 13.568 278.581 13.568C276.528 13.568 275.501 15.4907 275.501 19.336C275.501 21.2587 275.762 22.6867 276.285 23.62C276.808 24.5533 277.573 25.02 278.581 25.02Z" fill="#13A9BA"/>
<path d="M258.112 17.096C258.112 18.384 258.112 19.644 258.112 20.876C258.131 22.108 258.149 23.3306 258.168 24.544H259.764C261.668 24.544 263.143 23.8626 264.188 22.5C265.233 21.1373 265.756 19.2146 265.756 16.732C265.756 14.1746 265.243 12.224 264.216 10.88C263.189 9.53597 261.761 8.86397 259.932 8.86397H258.168C258.149 10.0586 258.131 11.2626 258.112 12.476C258.112 13.6893 258.112 14.9026 258.112 16.116V17.096ZM252.092 8.75197V7.43597H260.38C262.265 7.43597 263.899 7.79997 265.28 8.52798C266.68 9.25597 267.763 10.3106 268.528 11.692C269.293 13.0733 269.676 14.744 269.676 16.704C269.676 18.6826 269.256 20.3626 268.416 21.744C267.576 23.1253 266.419 24.18 264.944 24.908C263.469 25.636 261.771 26 259.848 26H252.092V24.684L254.444 24.432C254.481 23.256 254.5 22.0613 254.5 20.848C254.5 19.6346 254.5 18.384 254.5 17.096V16.116C254.5 14.94 254.5 13.764 254.5 12.588C254.5 11.3933 254.481 10.1986 254.444 9.00397L252.092 8.75197Z" fill="#13A9BA"/>
</svg>
