<svg width="73" height="73" viewBox="0 0 73 73" fill="none" xmlns="http://www.w3.org/2000/svg">
<rect x="0.373047" y="0.448242" width="72" height="72" rx="36" fill="#EDE8FF" fill-opacity="0.12"/>
<path d="M24.0865 27.4274H18.9652C18.3734 27.4274 17.8936 27.9131 17.8936 28.5123V30.992C17.8936 31.5912 18.3734 32.0769 18.9652 32.0769H22.5031C22.7879 30.4229 23.3301 28.8584 24.0865 27.4274Z" fill="url(#paint0_linear_1605_949)"/>
<path d="M22.2891 34.0717H18.9652C18.3734 34.0717 17.8936 34.5574 17.8936 35.1566V37.6363C17.8936 38.2355 18.3734 38.7212 18.9652 38.7212H22.7724C22.4471 37.4599 22.2739 36.1363 22.2739 34.7718C22.2739 34.5372 22.279 34.3038 22.2891 34.0717Z" fill="url(#paint1_linear_1605_949)"/>
<path d="M23.4195 40.6832H18.9652C18.3734 40.6832 17.8936 41.1689 17.8936 41.7681V44.2478C17.8936 44.847 18.3734 45.3327 18.9652 45.3327H26.3456C25.1159 43.9816 24.1191 42.41 23.4195 40.6832Z" fill="url(#paint2_linear_1605_949)"/>
<path fill-rule="evenodd" clip-rule="evenodd" d="M45.3847 47.1202C45.1329 46.8654 44.7419 46.8219 44.4318 46.9989C42.4216 48.1459 40.1005 48.8004 37.6285 48.8004C29.9651 48.8004 23.7528 42.5114 23.7528 34.7535C23.7528 26.9956 29.9651 20.7065 37.6285 20.7065C45.2918 20.7065 51.5041 26.9956 51.5041 34.7535C51.5041 37.256 50.8577 39.6057 49.7246 41.6408C49.5498 41.9547 49.5927 42.3506 49.8445 42.6054L54.148 46.9621C56.5817 49.4258 52.1219 53.9407 49.6882 51.4769L45.3847 47.1202ZM49.612 34.7535C49.612 41.4535 44.2468 46.8849 37.6285 46.8849C34.2983 46.8849 31.2854 45.5097 29.1137 43.2898C28.9791 43.1523 29.0788 42.9259 29.2712 42.9259H35.4589C36.0508 42.9259 36.5306 42.4402 36.5306 41.841V37.0365C36.5306 36.4373 36.0508 35.9516 35.4589 35.9516H26.0051C25.8335 35.9516 25.6895 35.8213 25.6773 35.6502C25.6365 35.0811 25.6348 34.4999 25.6722 33.9301C25.6835 33.7582 25.8279 33.6268 26.0002 33.6268H40.9794C41.5713 33.6268 42.0511 33.1411 42.0511 32.5419V27.7374C42.0511 27.1382 41.5713 26.6525 40.9794 26.6525H29.202C29.0105 26.6525 28.9104 26.4277 29.0432 26.2897C31.2201 24.0272 34.2622 22.622 37.6285 22.622C44.2468 22.622 49.612 28.0535 49.612 34.7535Z" fill="url(#paint3_linear_1605_949)"/>
<defs>
<linearGradient id="paint0_linear_1605_949" x1="35.9959" y1="20.7065" x2="35.9959" y2="56.328" gradientUnits="userSpaceOnUse">
<stop offset="0.385417" stop-color="#FFCC33"/>
<stop offset="0.71875" stop-color="#FFAD33"/>
</linearGradient>
<linearGradient id="paint1_linear_1605_949" x1="35.9959" y1="20.7065" x2="35.9959" y2="56.328" gradientUnits="userSpaceOnUse">
<stop offset="0.385417" stop-color="#FFCC33"/>
<stop offset="0.71875" stop-color="#FFAD33"/>
</linearGradient>
<linearGradient id="paint2_linear_1605_949" x1="35.9959" y1="20.7065" x2="35.9959" y2="56.328" gradientUnits="userSpaceOnUse">
<stop offset="0.385417" stop-color="#FFCC33"/>
<stop offset="0.71875" stop-color="#FFAD33"/>
</linearGradient>
<linearGradient id="paint3_linear_1605_949" x1="35.9959" y1="20.7065" x2="35.9959" y2="56.328" gradientUnits="userSpaceOnUse">
<stop offset="0.385417" stop-color="#FFCC33"/>
<stop offset="0.71875" stop-color="#FFAD33"/>
</linearGradient>
</defs>
</svg>
