<svg width="73" height="73" viewBox="0 0 73 73" fill="none" xmlns="http://www.w3.org/2000/svg">
<rect x="0.274414" y="0.368652" width="72" height="72" rx="36" fill="#EDE8FF" fill-opacity="0.12"/>
<path d="M41.7609 26.1405V23.3329C41.7609 22.8003 41.3292 22.3687 40.7967 22.3687H31.7251C31.1926 22.3687 30.7609 22.8003 30.7609 23.3329V26.1405C30.7609 26.6786 31.2086 27.1149 31.7609 27.1149H40.7609C41.3132 27.1149 41.7609 26.6786 41.7609 26.1405Z" fill="url(#paint0_linear_1605_841)"/>
<path fill-rule="evenodd" clip-rule="evenodd" d="M29.5109 26.1405V24.5214C29.5109 24.3868 29.399 24.2777 29.2609 24.2777H27.2744C25.8937 24.2777 24.7744 25.3684 24.7744 26.7138V47.9325C24.7744 49.278 25.8942 50.3687 27.275 50.3687H45.2739C46.6546 50.3687 47.7744 49.278 47.7744 47.9325V26.7138C47.7744 25.3684 46.6551 24.2777 45.2744 24.2777H43.2609C43.1229 24.2777 43.0109 24.3868 43.0109 24.5214V26.1405C43.0109 27.3514 42.0036 28.333 40.7609 28.333H31.7609C30.5183 28.333 29.5109 27.3514 29.5109 26.1405ZM37.5244 36.0621V37.5237H29.4564V36.0621H37.5244ZM43.0926 39.7968V41.2584H29.4564V39.7968H43.0926Z" fill="url(#paint1_linear_1605_841)"/>
<defs>
<linearGradient id="paint0_linear_1605_841" x1="36.0397" y1="22.3687" x2="36.0397" y2="54.0487" gradientUnits="userSpaceOnUse">
<stop offset="0.385417" stop-color="#FFCC33"/>
<stop offset="0.71875" stop-color="#FFAD33"/>
</linearGradient>
<linearGradient id="paint1_linear_1605_841" x1="36.0397" y1="22.3687" x2="36.0397" y2="54.0487" gradientUnits="userSpaceOnUse">
<stop offset="0.385417" stop-color="#FFCC33"/>
<stop offset="0.71875" stop-color="#FFAD33"/>
</linearGradient>
</defs>
</svg>
