<svg width="73" height="73" viewBox="0 0 73 73" fill="none" xmlns="http://www.w3.org/2000/svg">
<rect x="0.0742188" y="0.706543" width="72" height="72" rx="36" fill="#EDE8FF" fill-opacity="0.12"/>
<path d="M36.0747 24.2059C40.9329 24.2062 44.9804 27.6713 45.8843 32.2645C51.2323 31.5491 56.0747 35.7106 56.0747 41.1962C56.0747 46.172 52.0407 50.2057 47.0649 50.2059H25.0845C20.1085 50.2059 16.0738 46.1721 16.0737 41.1962C16.0737 38.4775 17.264 36.0847 19.1147 34.4491C19.8861 34.9579 20.4851 35.5259 20.9731 36.1591C22.0091 37.5035 22.661 39.2801 23.2397 41.7958L23.2905 41.9765C23.5774 42.8488 24.3837 43.2636 25.0728 43.2792C25.8084 43.2956 26.6989 42.8629 26.9702 41.8749L27.2319 40.9559C27.8481 38.8911 28.5041 37.3586 29.4243 36.1601C30.4416 34.8354 31.8721 33.8073 34.2358 33.0194L34.4009 32.9559C35.1953 32.6119 35.5359 31.8445 35.5552 31.2226C35.5743 30.6018 35.284 29.821 34.5229 29.4247L34.3647 29.3505C32.5014 28.5763 31.1545 27.5259 30.1147 26.1767C31.7788 24.9388 33.8411 24.2059 36.0747 24.2059Z" fill="url(#paint0_linear_17542_2884)"/>
<path d="M24.7017 41.4599C24.7974 41.876 25.4109 41.8892 25.5239 41.4774C26.9411 36.314 28.5895 33.3191 33.7612 31.5956C34.1404 31.4692 34.1577 30.8896 33.7886 30.7362C28.5862 28.5749 26.9377 24.4508 25.5164 18.9693C25.4088 18.5543 24.8002 18.5678 24.7092 18.9867C23.522 24.4568 21.8652 28.5727 16.4293 30.7326C16.053 30.8821 16.0699 31.475 16.4557 31.5979C21.8603 33.3197 23.5168 36.3095 24.7017 41.4599Z" fill="url(#paint1_linear_17542_2884)"/>
<defs>
<linearGradient id="paint0_linear_17542_2884" x1="35.666" y1="18.6652" x2="35.666" y2="54.3513" gradientUnits="userSpaceOnUse">
<stop offset="0.385417" stop-color="#FFCC33"/>
<stop offset="0.71875" stop-color="#FFAD33"/>
</linearGradient>
<linearGradient id="paint1_linear_17542_2884" x1="35.666" y1="18.6652" x2="35.666" y2="54.3513" gradientUnits="userSpaceOnUse">
<stop offset="0.385417" stop-color="#FFCC33"/>
<stop offset="0.71875" stop-color="#FFAD33"/>
</linearGradient>
</defs>
</svg>
