<svg width="73" height="73" viewBox="0 0 73 73" fill="none" xmlns="http://www.w3.org/2000/svg">
<rect x="0.71875" y="0.368652" width="72" height="72" rx="36" fill="#EDE8FF" fill-opacity="0.12"/>
<path fill-rule="evenodd" clip-rule="evenodd" d="M42.0574 35.1956C41.6752 34.5187 41.4745 33.7564 41.4745 32.9813V22.5244C41.4745 22.3675 41.6033 22.2403 41.7621 22.2403H41.96C42.4248 22.2403 42.8016 21.8635 42.8016 21.3987V21.2102C42.8016 20.7454 42.4248 20.3687 41.96 20.3687H31.4781C31.0133 20.3687 30.6366 20.7454 30.6366 21.2102C30.6366 21.2726 30.6366 21.3358 30.6366 21.3987C30.6366 21.8635 31.0133 22.2403 31.4781 22.2403H31.6761C31.8349 22.2403 31.9636 22.3675 31.9636 22.5244V32.9813C31.9636 33.7564 31.763 34.5187 31.3808 35.1956C29.3141 38.8559 27.0735 42.5703 24.9389 46.2978C23.3703 49.0369 25.3743 52.3687 28.5308 52.3687H44.9073C48.0638 52.3687 50.0678 49.0369 48.4993 46.2978C46.3647 42.5703 44.124 38.8559 42.0574 35.1956ZM33.7679 22.5244C33.7679 22.3675 33.897 22.2403 34.0558 22.2403H39.3823C39.5411 22.2403 39.6702 22.3675 39.6702 22.5244V32.9019C39.6702 33.2156 39.6999 33.47 39.3823 33.47H34.0558C33.7382 33.47 33.7679 33.2156 33.7679 32.9019V22.5244Z" fill="url(#paint0_linear_1605_865)"/>
<defs>
<linearGradient id="paint0_linear_1605_865" x1="36.4106" y1="20.3687" x2="36.4106" y2="56.5744" gradientUnits="userSpaceOnUse">
<stop offset="0.385417" stop-color="#FFCC33"/>
<stop offset="0.71875" stop-color="#FFAD33"/>
</linearGradient>
</defs>
</svg>
