<svg width="73" height="73" viewBox="0 0 73 73" fill="none" xmlns="http://www.w3.org/2000/svg">
<rect x="0.891602" y="0.368652" width="72" height="72" rx="36" fill="#EDE8FF" fill-opacity="0.12"/>
<path d="M35.6416 28.2437C35.6416 32.0406 32.5636 35.1187 28.7666 35.1187C24.9696 35.1187 21.8916 32.0406 21.8916 28.2437C21.8916 26.7375 22.3759 25.3444 23.1974 24.2118C23.2799 24.0979 23.4442 24.0883 23.5436 24.1877L28.1886 28.8327C28.296 28.9401 28.4701 28.9401 28.5775 28.8327L29.3553 28.0549C29.4627 27.9475 29.4627 27.7733 29.3553 27.6659L24.7103 23.0209C24.6109 22.9215 24.6205 22.7572 24.7344 22.6747C25.8671 21.8531 27.2603 21.3687 28.7666 21.3687C32.5636 21.3687 35.6416 24.4467 35.6416 28.2437Z" fill="url(#paint0_linear_1605_863)"/>
<path d="M51.8916 28.2437C51.8916 32.0406 48.8136 35.1187 45.0166 35.1187C41.2196 35.1187 38.1416 32.0406 38.1416 28.2437C38.1416 26.711 38.6432 25.2954 39.4911 24.1522C39.5743 24.04 39.7372 24.0313 39.836 24.13L44.5386 28.8327C44.646 28.9401 44.8201 28.9401 44.9275 28.8327L45.7053 28.0549C45.8127 27.9475 45.8127 27.7733 45.7053 27.6659L41.0185 22.9792C40.9184 22.879 40.929 22.7134 41.0445 22.6315C42.1663 21.8362 43.5368 21.3687 45.0166 21.3687C48.8136 21.3687 51.8916 24.4467 51.8916 28.2437Z" fill="url(#paint1_linear_1605_863)"/>
<path d="M28.7666 51.3687C32.5636 51.3687 35.6416 48.2906 35.6416 44.4937C35.6416 42.9874 35.1572 41.5942 34.3357 40.4615C34.2531 40.3477 34.0888 40.3381 33.9894 40.4375L29.2442 45.1827C29.1368 45.2901 28.9627 45.2901 28.8553 45.1827L28.0775 44.4048C27.9701 44.2974 27.9701 44.1233 28.0775 44.0159L32.8227 39.2708C32.9221 39.1713 32.9124 39.0071 32.7986 38.9245C31.6659 38.103 30.2728 37.6187 28.7666 37.6187C24.9696 37.6187 21.8916 40.6967 21.8916 44.4937C21.8916 48.2906 24.9696 51.3687 28.7666 51.3687Z" fill="url(#paint2_linear_1605_863)"/>
<path d="M51.8916 44.4937C51.8916 48.2906 48.8136 51.3687 45.0166 51.3687C41.2196 51.3687 38.1416 48.2906 38.1416 44.4937C38.1416 40.6967 41.2196 37.6187 45.0166 37.6187C46.5493 37.6187 47.9649 38.1202 49.1082 38.9682C49.2204 39.0514 49.2291 39.2143 49.1303 39.3131L44.4275 44.0159C44.3201 44.1233 44.3201 44.2975 44.4275 44.4048L45.2053 45.1827C45.3127 45.2901 45.4868 45.2901 45.5942 45.1827L50.2812 40.4957C50.3813 40.3956 50.5469 40.4062 50.6288 40.5217C51.4241 41.6434 51.8916 43.0139 51.8916 44.4937Z" fill="url(#paint3_linear_1605_863)"/>
<defs>
<linearGradient id="paint0_linear_1605_863" x1="36.5855" y1="21.3687" x2="36.5855" y2="55.3115" gradientUnits="userSpaceOnUse">
<stop offset="0.385417" stop-color="#FFCC33"/>
<stop offset="0.71875" stop-color="#FFAD33"/>
</linearGradient>
<linearGradient id="paint1_linear_1605_863" x1="36.5855" y1="21.3687" x2="36.5855" y2="55.3115" gradientUnits="userSpaceOnUse">
<stop offset="0.385417" stop-color="#FFCC33"/>
<stop offset="0.71875" stop-color="#FFAD33"/>
</linearGradient>
<linearGradient id="paint2_linear_1605_863" x1="36.5855" y1="21.3687" x2="36.5855" y2="55.3115" gradientUnits="userSpaceOnUse">
<stop offset="0.385417" stop-color="#FFCC33"/>
<stop offset="0.71875" stop-color="#FFAD33"/>
</linearGradient>
<linearGradient id="paint3_linear_1605_863" x1="36.5855" y1="21.3687" x2="36.5855" y2="55.3115" gradientUnits="userSpaceOnUse">
<stop offset="0.385417" stop-color="#FFCC33"/>
<stop offset="0.71875" stop-color="#FFAD33"/>
</linearGradient>
</defs>
</svg>
