<svg width="73" height="73" viewBox="0 0 73 73" fill="none" xmlns="http://www.w3.org/2000/svg">
<rect x="0.237305" y="0.368652" width="72" height="72" rx="36" fill="#EDE8FF" fill-opacity="0.12"/>
<path d="M21.1127 25.6514C21.1201 25.4728 21.3166 25.3678 21.4693 25.4609L22.4453 26.0567C22.5484 26.1196 22.6823 26.0939 22.7561 25.9982C25.8657 21.9676 30.7474 19.3687 36.2373 19.3687C45.4093 19.3687 52.886 26.6217 53.2368 35.7012C53.251 36.0691 52.951 36.3687 52.5825 36.3687H51.9154C51.5469 36.3687 51.2498 36.0695 51.2337 35.7016C50.8844 27.7269 44.3039 21.3687 36.2373 21.3687C31.4904 21.3687 27.2573 23.57 24.5056 27.0098C24.4184 27.1189 24.4481 27.2792 24.5673 27.352L25.5387 27.9449C25.6914 28.0381 25.6877 28.2611 25.532 28.3492L21.2601 30.7671C21.1 30.8577 20.9026 30.7371 20.9102 30.5533L21.1127 25.6514Z" fill="url(#paint0_linear_1605_857)"/>
<path d="M21.241 37.0357C21.2248 36.6678 20.9277 36.3687 20.5592 36.3687H19.8921C19.5236 36.3687 19.2236 36.6682 19.2378 37.0361C19.5886 46.1156 27.0653 53.3687 36.2373 53.3687C41.7425 53.3687 46.636 50.7552 49.7445 46.7054C49.8181 46.6094 49.9523 46.5834 50.0556 46.6464L51.0548 47.2564C51.2074 47.3495 51.404 47.2445 51.4114 47.0659L51.6139 42.164C51.6215 41.9802 51.4241 41.8596 51.264 41.9502L46.992 44.3681C46.8363 44.4562 46.8327 44.6792 46.9854 44.7724L47.9343 45.3516C48.0533 45.4242 48.0831 45.5841 47.9964 45.6932C45.2454 49.1527 40.9999 51.3687 36.2373 51.3687C28.1707 51.3687 21.5902 45.0104 21.241 37.0357Z" fill="url(#paint1_linear_1605_857)"/>
<path d="M35.8508 25.2996C36.1736 24.8189 36.9239 25.0475 36.9239 25.6266V33.1689C36.9239 33.687 37.3439 34.107 37.862 34.107H43.7886C44.5394 34.107 44.986 34.945 44.5674 35.5682L36.5953 47.4377C36.2724 47.9184 35.5222 47.6898 35.5222 47.1107V39.5685C35.5222 39.0503 35.1022 38.6303 34.584 38.6303H28.6574C27.9066 38.6303 27.46 37.7923 27.8786 37.1691L35.8508 25.2996Z" fill="url(#paint2_linear_1605_857)"/>
<defs>
<linearGradient id="paint0_linear_1605_857" x1="35.8904" y1="19.3687" x2="35.8904" y2="57.8372" gradientUnits="userSpaceOnUse">
<stop offset="0.385417" stop-color="#FFCC33"/>
<stop offset="0.71875" stop-color="#FFAD33"/>
</linearGradient>
<linearGradient id="paint1_linear_1605_857" x1="35.8904" y1="19.3687" x2="35.8904" y2="57.8372" gradientUnits="userSpaceOnUse">
<stop offset="0.385417" stop-color="#FFCC33"/>
<stop offset="0.71875" stop-color="#FFAD33"/>
</linearGradient>
<linearGradient id="paint2_linear_1605_857" x1="35.8904" y1="19.3687" x2="35.8904" y2="57.8372" gradientUnits="userSpaceOnUse">
<stop offset="0.385417" stop-color="#FFCC33"/>
<stop offset="0.71875" stop-color="#FFAD33"/>
</linearGradient>
</defs>
</svg>
