<svg width="73" height="73" viewBox="0 0 73 73" fill="none" xmlns="http://www.w3.org/2000/svg">
<rect x="0.410156" y="0.368652" width="72" height="72" rx="36" fill="#EDE8FF" fill-opacity="0.12"/>
<path fill-rule="evenodd" clip-rule="evenodd" d="M31.0494 29.5164C26.3386 34.2226 24.9355 38.9784 24.7421 40.7404C24.4293 43.5897 29.1892 48.332 32.0404 48.0317C33.7957 47.8469 38.6066 46.4788 43.2842 41.7394C51.533 33.3109 50.1876 27.0652 47.9618 24.8424C45.736 22.6195 39.3913 21.1825 31.0494 29.5164ZM44.1656 32.5577C43.0816 33.6407 41.324 33.6407 40.24 32.5577C39.1559 31.4747 39.1559 29.7189 40.24 28.6359C41.324 27.5529 43.0811 27.5524 44.1651 28.6354C45.2492 29.7184 45.2496 31.4747 44.1656 32.5577Z" fill="url(#paint0_linear_1605_854)"/>
<path d="M42.1666 44.3383C39.2139 46.9082 36.4428 48.1452 34.4314 48.7397L37.7183 54.0776C37.9768 54.4974 38.6065 54.4301 38.7705 53.9652L42.1666 44.3383Z" fill="url(#paint1_linear_1605_854)"/>
<path d="M24.0688 38.3702C24.6754 36.3703 25.9209 33.6062 28.4749 30.6334L18.8178 34.0242C18.352 34.1878 18.2845 34.8188 18.7053 35.0771L24.0688 38.3702Z" fill="url(#paint2_linear_1605_854)"/>
<defs>
<linearGradient id="paint0_linear_1605_854" x1="33.3287" y1="23.123" x2="33.3287" y2="59.3288" gradientUnits="userSpaceOnUse">
<stop offset="0.385417" stop-color="#FFCC33"/>
<stop offset="0.71875" stop-color="#FFAD33"/>
</linearGradient>
<linearGradient id="paint1_linear_1605_854" x1="33.3287" y1="23.123" x2="33.3287" y2="59.3288" gradientUnits="userSpaceOnUse">
<stop offset="0.385417" stop-color="#FFCC33"/>
<stop offset="0.71875" stop-color="#FFAD33"/>
</linearGradient>
<linearGradient id="paint2_linear_1605_854" x1="33.3287" y1="23.123" x2="33.3287" y2="59.3288" gradientUnits="userSpaceOnUse">
<stop offset="0.385417" stop-color="#FFCC33"/>
<stop offset="0.71875" stop-color="#FFAD33"/>
</linearGradient>
</defs>
</svg>
