<svg width="73" height="73" viewBox="0 0 73 73" fill="none" xmlns="http://www.w3.org/2000/svg">
<rect x="0.71875" y="0.983398" width="72" height="72" rx="36" fill="#EDE8FF" fill-opacity="0.12"/>
<path fill-rule="evenodd" clip-rule="evenodd" d="M37.6676 25.0871C37.9024 23.9914 38.9809 23.2936 40.0765 23.5284C41.1722 23.7631 41.87 24.8416 41.6353 25.9373L36.5199 49.8091C36.2851 50.9047 35.2066 51.6026 34.111 51.3678C33.0153 51.133 32.3175 50.0545 32.5523 48.9589L37.6676 25.0871ZM27.1335 29.193C27.9258 28.4007 29.2104 28.4007 30.0027 29.193C30.795 29.9853 30.795 31.2699 30.0027 32.0622L24.6168 37.4481L30.0027 42.834C30.795 43.6263 30.795 44.9109 30.0027 45.7032C29.2104 46.4956 27.9258 46.4956 27.1335 45.7032L20.313 38.8827C19.5207 38.0904 19.5207 36.8058 20.313 36.0135L27.1335 29.193ZM44.1848 29.193C44.9771 28.4007 46.2617 28.4007 47.054 29.193L53.8745 36.0135C54.6668 36.8058 54.6668 38.0904 53.8745 38.8827L47.054 45.7032C46.2617 46.4956 44.9771 46.4956 44.1848 45.7032C43.3925 44.9109 43.3925 43.6263 44.1848 42.834L49.5707 37.4481L44.1848 32.0622C43.3925 31.2699 43.3925 29.9853 44.1848 29.193Z" fill="url(#paint0_linear_1605_897)"/>
<defs>
<linearGradient id="paint0_linear_1605_897" x1="36.7392" y1="23.4829" x2="36.7391" y2="55.0841" gradientUnits="userSpaceOnUse">
<stop offset="0.385417" stop-color="#FFCC33"/>
<stop offset="0.71875" stop-color="#FFAD33"/>
</linearGradient>
</defs>
</svg>
