<svg width="73" height="73" viewBox="0 0 73 73" fill="none" xmlns="http://www.w3.org/2000/svg">
<rect x="0.583008" y="0.368652" width="72" height="72" rx="36" fill="#EDE8FF" fill-opacity="0.12"/>
<path fill-rule="evenodd" clip-rule="evenodd" d="M24.9124 22.3687C22.9593 22.3687 21.376 23.952 21.376 25.9051V42.88C21.376 44.8332 22.9593 46.4165 24.9124 46.4165H45.6665C46.4168 46.4165 47.1364 46.7145 47.667 47.2451L50.582 50.1601C51.0275 50.6056 51.7894 50.2901 51.7894 49.6599V25.9051C51.7894 23.952 50.2061 22.3687 48.2529 22.3687H24.9124ZM32.6926 34.0389C32.6926 35.0155 31.9009 35.8071 30.9244 35.8071C29.9478 35.8071 29.1562 35.0155 29.1562 34.0389C29.1562 33.0624 29.9478 32.2707 30.9244 32.2707C31.9009 32.2707 32.6926 33.0624 32.6926 34.0389ZM38.3509 34.0389C38.3509 35.0155 37.5592 35.8071 36.5827 35.8071C35.6061 35.8071 34.8145 35.0155 34.8145 34.0389C34.8145 33.0624 35.6061 32.2707 36.5827 32.2707C37.5592 32.2707 38.3509 33.0624 38.3509 34.0389ZM44.0092 34.0389C44.0092 35.0155 43.2176 35.8071 42.241 35.8071C41.2644 35.8071 40.4728 35.0155 40.4728 34.0389C40.4728 33.0624 41.2644 32.2707 42.241 32.2707C43.2176 32.2707 44.0092 33.0624 44.0092 34.0389Z" fill="url(#paint0_linear_1605_851)"/>
<defs>
<linearGradient id="paint0_linear_1605_851" x1="36.2723" y1="22.3687" x2="36.2723" y2="54.0487" gradientUnits="userSpaceOnUse">
<stop offset="0.385417" stop-color="#FFCC33"/>
<stop offset="0.71875" stop-color="#FFAD33"/>
</linearGradient>
</defs>
</svg>
