<svg width="72" height="73" viewBox="0 0 72 73" fill="none" xmlns="http://www.w3.org/2000/svg">
<rect y="0.435547" width="72" height="72" rx="36" fill="#15151F" fill-opacity="0.04"/>
<path d="M36.0005 23.9351C40.8587 23.9353 44.9062 27.4004 45.8101 31.9937C51.158 31.2782 56.0005 35.4397 56.0005 40.9253C56.0005 45.9011 51.9664 49.9348 46.9907 49.9351H25.0103C20.0343 49.9351 15.9995 45.9013 15.9995 40.9253C15.9995 38.2066 17.1897 35.8139 19.0405 34.1782C19.8119 34.6871 20.4109 35.255 20.8989 35.8882C21.9349 37.2326 22.5868 39.0092 23.1655 41.5249L23.2163 41.7056C23.5032 42.5779 24.3095 42.9927 24.9985 43.0083C25.7342 43.0247 26.6247 42.592 26.896 41.604L27.1577 40.6851C27.7739 38.6202 28.4298 37.0877 29.3501 35.8892C30.3673 34.5645 31.7979 33.5364 34.1616 32.7486L34.3267 32.6851C35.1211 32.341 35.4617 31.5737 35.481 30.9517C35.5001 30.3309 35.2098 29.5501 34.4487 29.1538L34.2905 29.0796C32.4272 28.3054 31.0803 27.255 30.0405 25.9058C31.7046 24.6679 33.7669 23.9351 36.0005 23.9351Z" fill="url(#paint0_linear_17542_2886)"/>
<path d="M24.6274 41.189C24.7232 41.6052 25.3367 41.6184 25.4497 41.2066C26.8668 36.0431 28.5153 33.0482 33.687 31.3247C34.0662 31.1984 34.0834 30.6187 33.7144 30.4653C28.512 28.304 26.8635 24.1799 25.4421 18.6984C25.3345 18.2834 24.7259 18.2969 24.635 18.7158C23.4478 24.1859 21.791 28.3018 16.3551 30.4617C15.9787 30.6113 15.9957 31.2041 16.3815 31.3271C21.7861 33.0489 23.4426 36.0387 24.6274 41.189Z" fill="url(#paint1_linear_17542_2886)"/>
<defs>
<linearGradient id="paint0_linear_17542_2886" x1="35.5918" y1="18.3943" x2="35.5918" y2="54.0804" gradientUnits="userSpaceOnUse">
<stop offset="0.385417" stop-color="#FFCC33"/>
<stop offset="0.71875" stop-color="#FFAD33"/>
</linearGradient>
<linearGradient id="paint1_linear_17542_2886" x1="35.5918" y1="18.3943" x2="35.5918" y2="54.0804" gradientUnits="userSpaceOnUse">
<stop offset="0.385417" stop-color="#FFCC33"/>
<stop offset="0.71875" stop-color="#FFAD33"/>
</linearGradient>
</defs>
</svg>
