<svg width="73" height="73" viewBox="0 0 73 73" fill="none" xmlns="http://www.w3.org/2000/svg">
<rect x="0.71875" y="0.983398" width="72" height="72" rx="36" fill="#EDE8FF" fill-opacity="0.12"/>
<rect x="17.334" y="23.9399" width="3.78915" height="26.087" rx="1.03375" fill="url(#paint0_linear_1605_936)"/>
<rect x="52.3145" y="23.9399" width="3.78915" height="26.087" rx="1.03375" fill="url(#paint1_linear_1605_936)"/>
<path fill-rule="evenodd" clip-rule="evenodd" d="M51.1231 29.4452V24.9737C51.1231 24.4028 50.6603 23.9399 50.0893 23.9399H45.8612L29.1086 43.44H39.1L51.1231 29.4452ZM51.1231 31.8695L41.1828 43.44H50.0893C50.6603 43.44 51.1231 42.9771 51.1231 42.4062V31.8695ZM33.7869 23.9399H43.7784L27.0258 43.44H23.3482C22.7773 43.44 22.3145 42.9771 22.3145 42.4062V37.2939L33.7869 23.9399ZM31.7041 23.9399H23.3482C22.7773 23.9399 22.3145 24.4028 22.3145 24.9737V34.8695L31.7041 23.9399Z" fill="url(#paint2_linear_1605_936)"/>
<defs>
<linearGradient id="paint0_linear_1605_936" x1="19.1899" y1="23.9399" x2="19.1898" y2="53.4555" gradientUnits="userSpaceOnUse">
<stop offset="0.385417" stop-color="#FFCC33"/>
<stop offset="0.71875" stop-color="#FFAD33"/>
</linearGradient>
<linearGradient id="paint1_linear_1605_936" x1="54.1704" y1="23.9399" x2="54.1703" y2="53.4555" gradientUnits="userSpaceOnUse">
<stop offset="0.385417" stop-color="#FFCC33"/>
<stop offset="0.71875" stop-color="#FFAD33"/>
</linearGradient>
<linearGradient id="paint2_linear_1605_936" x1="36.4248" y1="23.9399" x2="36.4248" y2="46.0028" gradientUnits="userSpaceOnUse">
<stop offset="0.385417" stop-color="#FFCC33"/>
<stop offset="0.71875" stop-color="#FFAD33"/>
</linearGradient>
</defs>
</svg>
