<svg width="24" height="24" viewBox="0 0 24 24" fill="none" xmlns="http://www.w3.org/2000/svg">
<path d="M10.7412 4.86014C9.53639 5.07259 8.45582 5.57021 7.55459 6.27089C7.17805 6.56364 6.83264 6.89199 6.52262 7.24998H9.00017C9.41438 7.24998 9.75017 7.58576 9.75017 7.99998C9.75017 8.41419 9.41438 8.74998 9.00017 8.74998H5.00017C4.58596 8.74998 4.25017 8.41419 4.25017 7.99998V3.99998C4.25017 3.58576 4.58596 3.24998 5.00017 3.24998C5.41438 3.24998 5.75017 3.58576 5.75017 3.99998V5.8754C6.02569 5.5938 6.32081 5.33011 6.63391 5.08669C7.72338 4.23965 9.02951 3.63882 10.4807 3.38293C15.2398 2.54378 19.7781 5.7215 20.6172 10.4806C20.6892 10.8885 20.4168 11.2775 20.0089 11.3494C19.6009 11.4213 19.212 11.149 19.14 10.741C18.4447 6.79782 14.6845 4.16484 10.7412 4.86014Z" fill="#2B3038"/>
<path d="M3.99147 12.6506C4.39939 12.5787 4.78839 12.851 4.86031 13.2589C5.55561 17.2022 9.31589 19.8352 13.2591 19.1399C14.9652 18.839 16.4254 17.9652 17.4778 16.75H15.0002C14.586 16.75 14.2502 16.4142 14.2502 16C14.2502 15.5858 14.586 15.25 15.0002 15.25H19.0002C19.4144 15.25 19.7502 15.5858 19.7502 16V20C19.7502 20.4142 19.4144 20.75 19.0002 20.75C18.586 20.75 18.2502 20.4142 18.2502 20V18.1245C17.0163 19.3856 15.3898 20.2873 13.5196 20.6171C8.76052 21.4562 4.22226 18.2785 3.3831 13.5194C3.31117 13.1115 3.58355 12.7225 3.99147 12.6506Z" fill="#2B3038"/>
</svg>
