<svg width="24" height="24" viewBox="0 0 24 24" fill="none" xmlns="http://www.w3.org/2000/svg">
<path fill-rule="evenodd" clip-rule="evenodd" d="M10.6645 2.88391C11.4951 2.42249 12.505 2.42249 13.3356 2.88391L19.4761 6.29532C20.8134 7.03828 20.8134 8.96157 19.4761 9.70453L13.3356 13.1159C12.505 13.5774 11.4951 13.5774 10.6645 13.1159L4.52399 9.70453C3.18667 8.96157 3.18666 7.03828 4.52399 6.29532L10.6645 2.88391ZM12.6071 4.19514C12.2296 3.98541 11.7705 3.98541 11.393 4.19515L5.25246 7.60655C4.94384 7.778 4.94384 8.22184 5.25246 8.39329L11.393 11.8047C11.7705 12.0144 12.2296 12.0144 12.6071 11.8047L18.7476 8.39329C19.0562 8.22184 19.0562 7.77801 18.7476 7.60655L12.6071 4.19514Z" fill="#2B3038"/>
<path d="M4.27098 15.2499C4.6852 15.2499 5.02099 15.5857 5.021 15.9999C5.021 16.1593 5.09737 16.3071 5.25246 16.3933L11.393 19.8047C11.7705 20.0144 12.2296 20.0144 12.6071 19.8047L18.7476 16.3933C18.9027 16.3071 18.9791 16.1593 18.9791 15.9999C18.9791 15.5857 19.3149 15.2499 19.7291 15.2499C20.1433 15.2499 20.4791 15.5857 20.4791 16C20.4791 16.6609 20.144 17.3335 19.4761 17.7045L13.3356 21.1159C12.505 21.5774 11.4951 21.5774 10.6645 21.1159L4.52399 17.7045C3.85613 17.3335 3.52101 16.6609 3.521 16C3.52099 15.5857 3.85677 15.2499 4.27098 15.2499Z" fill="#2B3038"/>
<path d="M5.021 11.9999C5.02099 11.5857 4.6852 11.2499 4.27098 11.2499C3.85677 11.2499 3.52099 11.5857 3.521 12C3.52101 12.6609 3.85613 13.3335 4.52399 13.7045L10.6645 17.1159C11.4951 17.5774 12.505 17.5774 13.3356 17.1159L19.4761 13.7045C20.144 13.3335 20.4791 12.6609 20.4791 12C20.4791 11.5857 20.1433 11.2499 19.7291 11.2499C19.3149 11.2499 18.9791 11.5857 18.9791 11.9999C18.9791 12.1593 18.9027 12.3071 18.7476 12.3933L12.6071 15.8047C12.2296 16.0144 11.7705 16.0144 11.393 15.8047L5.25246 12.3933C5.09737 12.3071 5.021 12.1593 5.021 11.9999Z" fill="#2B3038"/>
</svg>
