<svg width="32" height="32" viewBox="0 0 32 32" fill="none" xmlns="http://www.w3.org/2000/svg">
<g id="icon-spiral">
<path id="Union" fill-rule="evenodd" clip-rule="evenodd" d="M15.9998 5C9.19212 5 3.6665 10.5256 3.6665 17.3333C3.6665 22.861 8.13879 27.3333 13.6665 27.3333C19.1942 27.3333 23.6665 22.861 23.6665 17.3333C23.6665 13.099 20.2342 9.66667 15.9998 9.66667C11.7655 9.66667 8.33317 13.099 8.33317 17.3333C8.33317 20.2744 10.7255 22.6667 13.6665 22.6667C16.6076 22.6667 18.9998 20.2744 18.9998 17.3333C18.9998 15.6723 17.6609 14.3333 15.9998 14.3333C15.4476 14.3333 14.9998 13.8856 14.9998 13.3333C14.9998 12.781 15.4476 12.3333 15.9998 12.3333C18.7655 12.3333 20.9998 14.5677 20.9998 17.3333C20.9998 21.379 17.7121 24.6667 13.6665 24.6667C9.62089 24.6667 6.33317 21.379 6.33317 17.3333C6.33317 11.9944 10.6609 7.66667 15.9998 7.66667C21.3388 7.66667 25.6665 11.9944 25.6665 17.3333C25.6665 23.9656 20.2988 29.3333 13.6665 29.3333C7.03422 29.3333 1.6665 23.9656 1.6665 17.3333C1.6665 9.42105 8.08755 3 15.9998 3C23.9121 3 30.3332 9.42105 30.3332 17.3333C30.3332 17.8856 29.8855 18.3333 29.3332 18.3333C28.7809 18.3333 28.3332 17.8856 28.3332 17.3333C28.3332 10.5256 22.8076 5 15.9998 5Z" fill="#038194"/>
</g>
</svg>
