<svg width="24" height="24" viewBox="0 0 24 24" fill="none" xmlns="http://www.w3.org/2000/svg">
<path fill-rule="evenodd" clip-rule="evenodd" d="M10.9105 2.65719C11.3884 1.80763 12.6116 1.80762 13.0895 2.65719L16.7346 9.13733C17.2033 9.97058 16.6011 11.0002 15.6451 11.0002H8.35494C7.3989 11.0002 6.79676 9.97058 7.26547 9.13733L10.9105 2.65719ZM12 3.77995L8.7824 9.50015H15.2176L12 3.77995Z" fill="white"/>
<path fill-rule="evenodd" clip-rule="evenodd" d="M2.25 14.7501C2.25 13.7836 3.0335 13.0001 4 13.0001H9C9.9665 13.0001 10.75 13.7836 10.75 14.7501V19.7501C10.75 20.7166 9.9665 21.5001 9 21.5001H4C3.0335 21.5001 2.25 20.7166 2.25 19.7501V14.7501ZM4 14.5001C3.86193 14.5001 3.75 14.6121 3.75 14.7501V19.7501C3.75 19.8882 3.86193 20.0001 4 20.0001H9C9.13807 20.0001 9.25 19.8882 9.25 19.7501V14.7501C9.25 14.6121 9.13807 14.5001 9 14.5001H4Z" fill="white"/>
<path fill-rule="evenodd" clip-rule="evenodd" d="M17.5 12.5001C14.8766 12.5001 12.75 14.6268 12.75 17.2501C12.75 19.8735 14.8766 22.0001 17.5 22.0001C20.1234 22.0001 22.25 19.8735 22.25 17.2501C22.25 14.6268 20.1234 12.5001 17.5 12.5001ZM14.25 17.2501C14.25 15.4552 15.7051 14.0001 17.5 14.0001C19.2949 14.0001 20.75 15.4552 20.75 17.2501C20.75 19.045 19.2949 20.5001 17.5 20.5001C15.7051 20.5001 14.25 19.045 14.25 17.2501Z" fill="white"/>
</svg>
