<svg width="24" height="24" viewBox="0 0 24 24" fill="none" xmlns="http://www.w3.org/2000/svg">
<g id="icon-forward-next">
<path id="Union" d="M20.2489 12C20.2489 12.1091 20.2256 12.2129 20.1838 12.3064L20.0612 12.4967C20.0509 12.5084 20.0401 12.5199 20.0289 12.5311L12.78 19.78C12.4867 20.0733 12.0111 20.0733 11.7178 19.78C11.4245 19.4867 11.4245 19.0111 11.7178 18.7178L17.6845 12.7511H4.75111C4.33628 12.7511 4 12.4148 4 12C4 11.5852 4.33628 11.2489 4.75111 11.2489H17.6845L11.7178 5.28222C11.4245 4.98889 11.4245 4.51332 11.7178 4.21999C12.0111 3.92667 12.4867 3.92667 12.78 4.21999L20.0289 11.4689L20.0305 11.4705C20.0997 11.5401 20.1524 11.6198 20.1887 11.7049C20.2275 11.7955 20.2489 11.8952 20.2489 12Z" fill="white"/>
</g>
</svg>
