<svg width="48" height="48" viewBox="0 0 48 48" fill="none" xmlns="http://www.w3.org/2000/svg">
<rect width="48" height="48" rx="24" fill="#D0ED9D" fill-opacity="0.48"/>
<path fill-rule="evenodd" clip-rule="evenodd" d="M25.1861 34.1859C24.8062 35.3255 23.1943 35.3255 22.8144 34.1859L21.4023 28.5924C20.8003 26.208 17.4729 25.7722 15.4769 25.2019C14.2681 24.8565 14.2681 23.1435 15.4769 22.7981C17.4673 22.2294 20.7953 21.812 21.3971 19.4283L22.8144 13.8142C23.1943 12.6746 24.8062 12.6746 25.1861 13.8142C25.5813 14.9999 26.2135 17.6102 26.6176 19.3366C27.1936 21.7972 30.5113 22.143 32.5237 22.7981C33.7325 23.1435 33.7325 24.8565 32.5237 25.2019C30.5277 25.7722 27.2002 26.208 26.5983 28.5924L25.1861 34.1859ZM24.0003 33.0001L25.2717 27.9143C25.9431 25.2288 28.9669 24.6581 31.2702 24C28.9412 23.2336 25.9466 22.7693 25.2955 19.9736C24.9066 18.304 24.374 16.1212 24.0003 15L22.7247 20.1024C22.0523 22.7918 19.0324 23.3423 16.7303 24C19.0262 24.7555 22.051 25.2028 22.7352 27.94L24.0003 33.0001Z" fill="#5F8A2D"/>
</svg>
