<svg width="48" height="48" viewBox="0 0 48 48" fill="none" xmlns="http://www.w3.org/2000/svg">
<rect width="48" height="48" rx="24" fill="#D6C9FF" fill-opacity="0.64"/>
<path fill-rule="evenodd" clip-rule="evenodd" d="M21 17.2527C21 15.7339 19.7688 14.5027 18.25 14.5027H17.25C15.7312 14.5027 14.5 15.7339 14.5 17.2527V27.7439C14.5 28.8164 15.5532 30.7942 16.1493 32.1431C16.7637 33.5332 18.7363 33.5332 19.3507 32.1431C19.9095 30.8786 21 28.8164 21 27.7439V18.756L21 18.7527L21 18.7494V17.2527ZM19.1809 28.8164L17.9787 31.5367C17.8909 31.7353 17.6091 31.7353 17.5213 31.5367L16.3191 28.8164H19.1809ZM16 27.3164H19.5V19.5027L16 19.5027V27.3164ZM16 17.2527V18.0027H19.5V17.2527C19.5 16.5623 18.9404 16.0027 18.25 16.0027H17.25C16.5596 16.0027 16 16.5623 16 17.2527Z" fill="#6645D1"/>
<path fill-rule="evenodd" clip-rule="evenodd" d="M32.5 15.3999C32.5 14.4334 31.7165 13.6499 30.75 13.6499H25.75C24.7835 13.6499 24 14.4334 24 15.3999V32.3999C24 33.3664 24.7835 34.1499 25.75 34.1499H30.75C31.7165 34.1499 32.5 33.3664 32.5 32.3999V15.3999ZM30.75 15.1499C30.8881 15.1499 31 15.2618 31 15.3999V17.2499H28.75C28.3358 17.2499 28 17.5857 28 17.9999C28 18.4141 28.3358 18.7499 28.75 18.7499H31V20.2499H29.75C29.3358 20.2499 29 20.5857 29 20.9999C29 21.4141 29.3358 21.7499 29.75 21.7499H31V23.2499H28.75C28.3358 23.2499 28 23.5857 28 23.9999C28 24.4141 28.3358 24.7499 28.75 24.7499H31V26.2499H29.75C29.3358 26.2499 29 26.5857 29 26.9999C29 27.4141 29.3358 27.7499 29.75 27.7499H31V29.2499H28.75C28.3358 29.2499 28 29.5857 28 29.9999C28 30.4141 28.3358 30.7499 28.75 30.7499H31V32.3999C31 32.538 30.8881 32.6499 30.75 32.6499H25.75C25.6119 32.6499 25.5 32.538 25.5 32.3999V15.3999C25.5 15.2618 25.6119 15.1499 25.75 15.1499H30.75Z" fill="#6645D1"/>
</svg>
